<?xml version="1.0" encoding="UTF-8"?> <svg xmlns="http://www.w3.org/2000/svg" id="Layer_1" version="1.1" viewBox="0 0 724 444.1"><!-- Generator: Adobe Illustrator 29.5.1, SVG Export Plug-In . SVG Version: 2.1.0 Build 141) --><defs><style> .st0 { fill: none; } .st1 { fill: #fffeff; } </style></defs><g><path d="M362,444.1c-96.5,0-187.3-23-255.6-64.7C37.8,337.4,0,281.5,0,222S37.8,106.7,106.4,64.7C174.7,23,265.5,0,362,0s187.3,23,255.6,64.7c68.6,41.9,106.4,97.8,106.4,157.3s-37.8,115.4-106.4,157.3c-68.3,41.7-159.1,64.7-255.6,64.7h0ZM362,4C164.6,4,4,101.8,4,222s160.6,218,358,218,358-97.8,358-218S559.4,4,362,4Z"></path><path d="M57.2,216.2c0,3.8-3.1,6.9-6.9,6.9s-6.9-3.1-6.9-6.9,3.1-6.9,6.9-6.9,6.9,3.1,6.9,6.9"></path><path d="M684.4,216.2c0,3.8-3.1,6.9-6.9,6.9s-6.9-3.1-6.9-6.9,3.1-6.9,6.9-6.9,6.9,3.1,6.9,6.9"></path><path d="M72.3,112.9l9,12.4c.5-.3.8-.6,1.1-.7,1.7-1.2,2.7-2.7,2.9-4.4.2-1.7-.5-3.6-2.1-5.8-1.5-2.1-3.1-3.3-4.8-3.6-1.6-.3-3.4.2-5.2,1.5l-.9.6ZM82.5,126.9l5.8,7.9c1.1,1.5,1.9,2.5,2.4,2.7.5.3,1.1.3,1.7.2.7-.1,1.6-.6,2.9-1.6l.6.8-14.5,10.6-.6-.8c1.3-1,2.1-1.7,2.4-2.3s.4-1.2.3-1.7c0-.5-.7-1.6-1.8-3.1l-13.5-18.6c-1.1-1.5-1.9-2.5-2.4-2.7-.5-.3-1-.3-1.7-.2-.7,0-1.6.6-2.9,1.6l-.6-.8,12.5-9.1c4.1-3,7.6-4.4,10.4-4.2,2.9.2,5.1,1.3,6.7,3.5,1.4,1.9,1.9,3.9,1.7,6-.2,2.2-1.1,4.2-2.8,6.2-1.1,1.3-3.3,3.2-6.6,5.5"></path><path d="M103.1,91.9l8.1,13.2,1.3-.8c2.1-1.3,3.5-2.4,4.3-3.4s1.2-2.2,1.2-3.5-.5-2.8-1.5-4.4c-1.4-2.3-3-3.7-4.7-4.1s-3.8,0-6.2,1.5l-2.4,1.4h-.1ZM112.1,106.7l5.2,8.5c1,1.6,1.7,2.6,2.2,2.9s1,.4,1.7.4,1.7-.5,3.1-1.3l.5.8-15.5,9.4-.5-.8c1.4-.8,2.3-1.6,2.6-2.1.3-.6.5-1.1.4-1.7,0-.5-.6-1.6-1.6-3.3l-11.9-19.6c-1-1.6-1.7-2.6-2.2-2.9s-1-.4-1.7-.4-1.7.5-3.1,1.3l-.5-.8,14-8.5c3.7-2.2,6.5-3.6,8.5-4.1s4-.4,5.8.3c1.9.7,3.4,2,4.5,3.8,1.4,2.2,1.7,4.6,1,7-.5,1.5-1.5,3.1-3,4.7l13.5,5.8c1.8.7,2.9,1.2,3.5,1.2.9,0,1.7,0,2.6-.5l.5.8-9.5,5.8-18.1-7.9-2,1.2h0Z"></path><path d="M160.3,97.2l.4.9-16.4,8.5-.4-.9,1-.5c.9-.5,1.6-1,2-1.6.3-.4.4-1,.4-1.6s-.4-1.5-1.3-3.1l-10.7-20.7c-.8-1.6-1.4-2.6-1.8-2.9-.4-.3-.9-.5-1.6-.5s-1.5.2-2.3.6l-1,.5-.4-.9,16.4-8.5.4.9-1,.5c-.9.5-1.6,1-2,1.6-.3.4-.4,1-.4,1.6s.4,1.5,1.3,3.1l10.7,20.7c.8,1.6,1.4,2.6,1.8,2.9.4.3.9.5,1.6.5s1.5-.2,2.3-.6l1-.5Z"></path><path d="M184.6,48.7l.4.9c-1.1.7-1.9,1.8-2.3,3.3-.3,1.1-.5,3.4-.6,6.9l-.5,29.7-.8.3-22.3-21c-2.7-2.5-4.4-4-5.1-4.3-.7-.3-1.7-.3-3,0l-.4-.9,15.6-6.7.4.9-.5.2c-1.4.6-2.3,1.2-2.7,1.8-.3.4-.3.8,0,1.3.1.3.3.6.6.9.3.3,1.2,1.2,2.7,2.6l13.9,13.2.2-17.2v-4.1c0-.7-.2-1.2-.4-1.6-.2-.5-.5-.8-.9-1.1s-.9-.4-1.5-.4-1.8.3-2.9.8l-.4-.9,10.7-4.6h-.2Z"></path><path d="M210.9,64.4l-9-9.8-1.1,13.3,10.1-3.5ZM212.4,66l-11.8,4.1-.3,3.7c0,1.2,0,2.2.2,2.9.3.9.9,1.5,1.8,1.7.5,0,1.7,0,3.5-.5l.3.9-11.1,3.8-.3-.9c1.1-.6,2-1.4,2.4-2.5.5-1.1.9-3.1,1.1-6l2.7-30.8.5-.2,21.5,23.3c2,2.2,3.6,3.5,4.5,3.9.7.3,1.6.3,2.7,0l.3.9-16.2,5.6-.3-.9.7-.2c1.3-.4,2.1-.9,2.6-1.5.3-.4.3-.8.1-1.3-.1-.3-.3-.6-.5-.9,0,0-.5-.7-1.4-1.6l-3.2-3.6h.2Z"></path><path d="M253.1,28l2.4,9.3-.9.2c-1.1-2-2.1-3.4-3-4.1-.9-.8-2-1.3-3.3-1.5-.7-.1-1.9,0-3.5.4l-2.5.7,6.9,26.4c.5,1.8.8,2.8,1.1,3.2s.8.7,1.4.9c.7.2,1.5,0,2.4,0l1.1-.3.2.9-17.9,4.7-.2-.9,1.1-.3c1-.3,1.7-.6,2.3-1.2.4-.4.6-.8.7-1.5,0-.5-.1-1.5-.6-3.3l-6.9-26.4-2.5.6c-2.3.6-3.9,1.5-4.6,2.8-1.1,1.7-1.5,3.9-1.3,6.6l-1,.3-2.4-9.3,30.8-8h.2Z"></path><path d="M274.6,25.9l2.5,14.2h.7c2.2-.5,3.7-1.5,4.4-3,.8-1.6,1-3.7.8-6.5l1-.2,3.2,18.3-1,.2c-.6-2-1.3-3.5-2.1-4.7-.9-1.2-1.8-1.9-2.7-2.2-1-.3-2.3-.3-3.9,0l1.7,9.8c.3,1.9.6,3.1.9,3.5.2.4.6.7,1.1.9s1.2.2,2.2,0l2.1-.4c3.3-.6,5.7-1.8,7.4-3.6,1.7-1.9,2.7-4.4,3-7.6l1-.2.4,11.4-30.1,5.3-.2-1,1.2-.2c1-.2,1.8-.5,2.3-1,.4-.3.7-.8.8-1.4.1-.4,0-1.5-.3-3.3l-4-22.9c-.3-1.6-.5-2.5-.6-2.9-.3-.6-.7-1-1.2-1.2-.7-.4-1.7-.5-2.8-.3l-1.2.2-.2-1,29.2-5.1,1.8,10.3-1,.2c-.9-2.4-1.9-4.1-3-5.1-1.1-.9-2.5-1.5-4.2-1.8-1-.1-2.8,0-5.5.5l-3.6.6v.2Z"></path><path d="M351.6,38.8l-.6,12.5-31.4,1.8v-1h1.1c1,0,1.8-.3,2.4-.7.4-.3.8-.7,1-1.3.2-.4.2-1.5.1-3.3l-1.3-23.2c-.1-1.8-.3-2.9-.5-3.4-.2-.4-.6-.8-1.2-1.1s-1.4-.4-2.4-.4h-1.2v-.9l18.8-1.1v1h-1.5c-1,0-1.8.3-2.4.7-.4.3-.8.7-1,1.3-.2.4-.2,1.5-.1,3.3l1.3,22.5c.1,1.8.3,3,.5,3.4.2.5.7.8,1.3,1,.4,0,1.5.2,3.2,0l2.9-.2c1.9,0,3.4-.5,4.6-1.3,1.2-.7,2.2-1.8,3.1-3.3.8-1.5,1.6-3.6,2.2-6.5h1.1v.2Z"></path><path d="M375.1,39.7l-4.9-12.3-5.8,12,10.7.3h0ZM375.9,41.7l-12.5-.4-1.6,3.4c-.5,1.1-.8,2.1-.8,2.8,0,1,.3,1.7,1.1,2.2.5.3,1.6.5,3.5.7v1l-11.8-.4v-1c1.3-.2,2.4-.6,3.2-1.5.8-.8,1.9-2.6,3.2-5.2l13.5-27.8h.5l11.9,29.4c1.1,2.8,2.1,4.5,2.8,5.3.6.6,1.4.9,2.5,1v1l-17.1-.5v-1h.7c1.4,0,2.3,0,2.9-.5.4-.3.6-.7.6-1.2s0-.6-.1-1c0-.2-.3-.8-.7-2l-1.7-4.5v.2Z"></path><path d="M392.6,17.4l18.1,2.2v1c-.1,0-1-.1-1-.1-1.4-.2-2.3-.1-2.9,0-.5.2-1,.6-1.2,1-.3.5-.5,1.7-.8,3.7l-2.1,17.2c-.4,3.1-.4,5.3,0,6.3.4,1.1,1,2,2,2.8s2.3,1.3,4,1.5c1.9.2,3.6,0,5-.7s2.6-1.8,3.4-3.2,1.5-4,1.9-7.7l1.7-14.3c.2-1.6.2-2.7,0-3.4-.2-.7-.6-1.2-1.1-1.5-.7-.5-1.8-.8-3.2-1v-1c.1,0,12.3,1.5,12.3,1.5v1h-.8c-1-.1-1.8,0-2.5.3s-1.3.9-1.6,1.6c-.3.5-.5,1.5-.7,2.9l-1.6,13.3c-.5,4.1-1.1,7.1-1.9,8.8-.8,1.8-2.3,3.3-4.6,4.6-2.3,1.3-5.3,1.7-8.9,1.3-3-.4-5.3-1.1-6.9-2.1-2.1-1.4-3.6-3-4.3-4.8-.7-1.8-.9-4.2-.6-7.1l2.1-17.2c.2-2,.3-3.3.1-3.8-.2-.5-.5-1-1-1.3-.5-.4-1.5-.6-3-.8v-1h.1Z"></path><path d="M483.3,32.6l-5.7,27c-.3,1.4-.4,2.3-.4,2.7s.2.6.5.9c.4.4,1,.6,1.9.8,2.8.6,5.2,0,7.1-1.5,2.6-2.2,4.5-6,5.6-11.6.9-4.4,1-8.1.2-11.1-.7-2.3-1.8-4-3.4-5.1-1.1-.8-3.1-1.5-5.9-2.1M463.2,62.5l.2-.9,1.1.2c1,.2,1.8.2,2.4,0s1.1-.5,1.5-1c.2-.3.5-1.4.9-3.2l4.8-22.8c.4-1.8.5-2.9.4-3.4,0-.5-.4-1-.9-1.4-.5-.5-1.2-.8-2.2-1l-1.1-.2.2-.9,15.5,3.3c4.1.9,7.3,2.1,9.6,3.8,2.8,2,4.7,4.6,5.7,7.7,1,3.1,1.1,6.5.4,10-.5,2.4-1.4,4.6-2.6,6.5s-2.6,3.4-4.1,4.4c-1.5,1.1-3.2,1.8-5,2.3s-3.9.7-6.4.6c-1.1,0-2.7-.3-5-.7l-15.5-3.3h.1Z"></path><path d="M522,43.2l-4.2,13.8.7.2c2.1.7,3.9.4,5.3-.6,1.4-1.1,2.6-2.9,3.7-5.4l.9.3-5.4,17.7-.9-.3c.4-2,.4-3.7.2-5.1-.3-1.4-.8-2.5-1.5-3.2s-1.9-1.3-3.5-1.8l-2.9,9.5c-.6,1.9-.8,3-.8,3.5s.2.9.6,1.3c.4.4,1,.7,2,1l2,.6c3.2,1,5.9,1,8.3,0,2.4-.9,4.4-2.7,6.1-5.4l.9.3-4.8,10.3-29.3-8.9.3-.9,1.1.3c1,.3,1.8.4,2.5.2.5,0,1-.4,1.4-.9.3-.3.7-1.4,1.2-3.1l6.8-22.3c.5-1.5.7-2.5.7-2.9,0-.6-.2-1.2-.5-1.6-.5-.7-1.3-1.2-2.4-1.5l-1.1-.3.3-.9,28.3,8.6-3,10-.9-.3c.3-2.6,0-4.6-.4-5.9-.6-1.3-1.5-2.5-3-3.5-.8-.6-2.5-1.3-5.1-2l-3.5-1.1v.2Z"></path><path d="M556.1,56.1l-5.8,14.4,1.4.6c2.2.9,4,1.4,5.3,1.4s2.5-.4,3.5-1.2c1.1-.8,1.9-2.1,2.6-3.8,1-2.5,1.2-4.6.5-6.3s-2.3-3-4.9-4.1c0,0-2.6-1-2.6-1ZM549.7,72.2l-3.7,9.2c-.7,1.8-1,2.9-1,3.5s.3,1.1.7,1.6,1.4,1,2.9,1.6l-.4.9-16.8-6.7.4-.9c1.5.6,2.6.9,3.3.8.7,0,1.2-.3,1.6-.6.4-.4,1-1.4,1.7-3.2l8.5-21.3c.7-1.8,1-2.9,1-3.5s-.3-1.1-.7-1.6-1.4-1-2.9-1.6l.4-.9,15.3,6.1c4,1.6,6.8,3,8.4,4.3,1.6,1.3,2.7,2.9,3.3,4.8s.5,3.9-.3,5.9c-1,2.4-2.6,4.1-5,5-1.5.6-3.4.7-5.6.4l3.4,14.3c.5,1.9.8,3,1.1,3.6.5.8,1.1,1.3,2,1.7l-.4.9-10.3-4.1-4.6-19.2-2.2-.9h-.1Z"></path><path d="M594.3,74l-6.5,12.9.6.3c2,1,3.8,1.1,5.3.3,1.5-.8,3-2.4,4.5-4.7l.9.4-8.3,16.5-.9-.4c.7-1.9,1.1-3.6,1.1-5s-.3-2.6-.9-3.4c-.6-.8-1.6-1.6-3.1-2.3l-4.5,8.9c-.9,1.7-1.3,2.8-1.4,3.3,0,.5,0,.9.3,1.4s.9.9,1.8,1.4l1.9,1c3,1.5,5.7,2,8.1,1.5s4.8-1.9,7-4.3l.9.4-6.5,9.3-27.3-13.8.4-.9,1,.5c.9.5,1.7.7,2.5.6.5,0,1-.2,1.5-.6.4-.3.9-1.2,1.7-2.8l10.5-20.8c.7-1.4,1.1-2.3,1.2-2.7,0-.6,0-1.2-.2-1.7-.4-.7-1.1-1.4-2.1-1.9l-1-.5.4-.9,26.5,13.3-4.7,9.3-.9-.4c.7-2.5.9-4.5.6-5.9-.3-1.4-1.1-2.7-2.4-3.9-.7-.7-2.3-1.7-4.7-2.9l-3.3-1.6h0Z"></path><path d="M626.7,92.2l-8.1,13.2,1.3.8c2.1,1.3,3.7,2,5,2.3s2.5,0,3.7-.6,2.3-1.7,3.3-3.3c1.4-2.3,1.9-4.3,1.5-6.1-.4-1.8-1.8-3.4-4.2-4.8l-2.4-1.5h0ZM617.6,107l-5.2,8.4c-1,1.6-1.5,2.7-1.6,3.3,0,.5,0,1.1.4,1.7.3.6,1.2,1.3,2.6,2.1l-.5.8-15.4-9.5.5-.8c1.4.9,2.4,1.3,3.1,1.4s1.2,0,1.7-.4c.5-.3,1.2-1.3,2.2-2.9l12.1-19.5c1-1.6,1.5-2.7,1.6-3.3,0-.5,0-1.1-.4-1.7-.3-.6-1.2-1.3-2.6-2.1l.5-.8,14,8.6c3.6,2.2,6.2,4.1,7.5,5.7,1.4,1.5,2.2,3.3,2.4,5.3s-.2,3.9-1.3,5.8c-1.4,2.2-3.3,3.6-5.8,4-1.6.3-3.4,0-5.6-.6l1,14.7c0,1.9.3,3.1.5,3.7.3.8.9,1.5,1.6,2.1l-.5.8-9.5-5.9-1.2-19.7-2-1.2h0Z"></path><path d="M673.2,120.5l-6.7,9.7-.9-.6c1.3-2.7,1.7-5.3,1.2-8-.5-2.6-1.7-4.6-3.6-6-1.4-1-2.8-1.5-4.2-1.3s-2.5.7-3.2,1.7c-.5.6-.7,1.3-.8,2,0,1,0,2.1.5,3.4.3.9,1.2,2.9,2.8,5.8,2.1,4.1,3.3,7.3,3.3,9.6s-.6,4.4-1.9,6.3c-1.7,2.4-4.2,3.8-7.3,4.1-3.1.4-6.1-.5-9-2.6-.9-.7-1.7-1.4-2.3-2.1-.7-.8-1.4-1.8-2.3-3.2-.5-.8-.9-1.3-1.4-1.6-.4-.3-.9-.4-1.5-.4s-1.3.2-1.9.6l-.8-.6,7.9-10.8.8.6c-1.6,3.5-2.1,6.7-1.5,9.6s1.9,5.1,3.9,6.6c1.6,1.2,3.1,1.6,4.7,1.5,1.6-.2,2.8-.8,3.6-2,.5-.7.8-1.5.9-2.4,0-.9,0-1.9-.3-3s-1.1-2.8-2.2-5.1c-1.7-3.2-2.7-5.6-3.2-7.4-.5-1.7-.6-3.4-.4-4.9.2-1.6.8-3,1.8-4.3,1.7-2.3,3.9-3.6,6.8-4,2.8-.4,5.5.4,8.1,2.2.9.7,1.7,1.4,2.4,2.3.5.7,1.1,1.6,1.7,2.7.6,1.2,1.1,1.9,1.5,2.1.4.3.7.4,1.1.3.4,0,1-.5,1.8-1.2l.6.5h0Z"></path><path d="M81.2,338.2l-.6.8-14.7-11.3.6-.8.9.7c.8.6,1.6,1,2.3,1.1.5,0,1,0,1.6-.4.4-.2,1.1-1,2.2-2.4l14.2-18.5c1.1-1.4,1.7-2.4,1.8-2.9,0-.5,0-1-.2-1.6-.3-.6-.8-1.2-1.6-1.8l-.9-.7.6-.8,14.7,11.3-.6.8-.9-.7c-.8-.6-1.6-1-2.3-1.1-.5,0-1,0-1.6.3-.4.2-1.1,1-2.2,2.4l-14.2,18.5c-1.1,1.4-1.7,2.4-1.8,2.9,0,.5,0,1,.2,1.7.3.6.8,1.2,1.6,1.8l.9.7Z"></path><path d="M115.6,320.3l2.5,27.9,8.4-12.7c1.2-1.8,1.7-3.1,1.6-4.1-.1-1.3-1-2.5-2.7-3.5l.5-.8,9.8,6.4-.5.8c-1.4-.7-2.3-1-2.9-1s-1.2.2-1.8.6-1.4,1.3-2.3,2.7l-16.2,24.6-.7-.5-3.8-37.8-12.4,18.8c-1.1,1.7-1.5,3.1-1.1,4.2s1.1,2,2.1,2.7l.7.5-.5.8-10.5-6.9.5-.8c1.6,1.1,3,1.5,4.1,1.2,1.1-.2,2.1-1.1,3.2-2.7l13.7-20.9v-1.2c-.2-1.2-.4-2.1-.8-2.6-.3-.6-.9-1.2-1.8-1.8l.5-.8,10.5,6.9h0Z"></path><path d="M168.1,351.1l-4.5,8.4-.8-.4c.6-2.2.8-3.9.6-5.1-.1-1.2-.6-2.3-1.4-3.4-.4-.6-1.4-1.3-2.8-2.1l-2.3-1.3-13,24c-.9,1.6-1.3,2.6-1.3,3.1s.1,1,.5,1.6,1,1.1,1.9,1.6l1,.6-.5.8-16.3-8.8.5-.8,1,.6c.9.5,1.7.7,2.4.7s1-.2,1.5-.6c.4-.3,1-1.2,1.8-2.8l13-24-2.3-1.2c-2.1-1.1-3.9-1.5-5.3-1.1-2,.5-3.8,1.8-5.4,3.9l-.9-.5,4.5-8.4,28,15.1h.1Z"></path><path d="M184,360.5l-5.7,13.2.6.3c2.1.9,3.8.9,5.3,0s2.9-2.5,4.3-4.9l.9.4-7.4,17-.9-.4c.6-1.9.9-3.6.8-5.1-.1-1.4-.5-2.6-1.1-3.3-.6-.8-1.7-1.5-3.3-2.2l-4,9.1c-.8,1.8-1.2,2.9-1.2,3.4s.1.9.4,1.4.9.9,1.8,1.3l1.9.8c3,1.3,5.8,1.7,8.2,1.1s4.7-2.2,6.7-4.7l.9.4-5.9,9.7-28-12.2.4-.9,1.1.5c.9.4,1.8.6,2.5.5.5,0,1-.3,1.5-.7.3-.3.9-1.3,1.6-2.9l9.3-21.3c.6-1.5,1-2.4,1.1-2.8,0-.6,0-1.2-.3-1.7-.4-.7-1.1-1.3-2.2-1.8l-1.1-.5.4-.9,27.2,11.8-4.2,9.6-.9-.4c.6-2.5.6-4.5.2-5.9-.4-1.4-1.3-2.7-2.6-3.8-.8-.7-2.4-1.5-4.8-2.6l-3.4-1.5h-.1Z"></path><path d="M218.8,374.1l-4.9,14.7,1.4.5c2.3.8,4.1,1.1,5.4,1.1s2.4-.5,3.4-1.4,1.8-2.2,2.4-4c.9-2.6.9-4.6.1-6.3-.8-1.6-2.5-2.9-5.2-3.8l-2.6-.9h0ZM213.3,390.6l-3.1,9.4c-.6,1.8-.9,3-.8,3.5,0,.5.3,1.1.8,1.5.5.5,1.5,1,3,1.5l-.3.9-17.2-5.7.3-.9c1.6.5,2.7.7,3.3.6.7-.1,1.2-.3,1.5-.7.4-.4.9-1.5,1.5-3.3l7.3-21.8c.6-1.8.9-3,.8-3.5,0-.5-.3-1.1-.8-1.5s-1.5-1-3-1.5l.3-.9,15.6,5.2c4.1,1.4,6.9,2.6,8.6,3.8,1.7,1.2,2.9,2.7,3.6,4.6.7,1.9.7,3.9,0,5.9-.8,2.5-2.4,4.2-4.7,5.2-1.5.6-3.3.9-5.5.7l4.3,14.1c.6,1.8,1,3,1.3,3.5.5.7,1.2,1.3,2.1,1.6l-.3.9-10.6-3.5-5.7-18.9-2.2-.7h-.1Z"></path><path d="M254.9,418.5l-.2.9-17.9-4.6.2-.9,1.1.3c1,.3,1.8.3,2.5,0,.5-.1.9-.4,1.3-1,.3-.4.7-1.4,1.1-3.1l5.8-22.5c.4-1.8.6-2.9.6-3.4s-.3-1-.8-1.4c-.5-.5-1.2-.8-2.2-1.1l-1.1-.3.2-.9,17.9,4.6-.2.9-1.1-.3c-1-.3-1.8-.3-2.5,0-.5.1-.9.4-1.3.9-.3.4-.7,1.4-1.1,3.1l-5.8,22.5c-.4,1.8-.6,2.9-.6,3.4s.4,1,.8,1.4c.5.5,1.2.8,2.2,1.1l1.1.3h0Z"></path><path d="M286.9,391.1c-3.2-.6-5.9.6-8.1,3.6-1.8,2.4-3.2,6.1-4.1,11.1-1.1,5.9-.8,10.5.8,13.7,1.1,2.2,3,3.6,5.6,4.1,1.8.3,3.3.2,4.6-.5,1.7-.8,3.2-2.4,4.5-4.6,1.3-2.3,2.3-5.3,2.9-9.2.8-4.6,1-8.1.6-10.6-.4-2.4-1.2-4.2-2.4-5.4s-2.6-1.9-4.3-2.2M286.9,389.4c5.6.8,9.8,3.2,12.7,7.3,2.9,4.1,3.8,8.7,2.9,13.9-.8,4.4-2.8,8.1-6,11-4.2,3.8-9.5,5.2-15.7,4.1-6.3-1.1-10.7-4.1-13.4-9-2.1-3.8-2.7-8.1-1.9-12.7.9-5.2,3.5-9.2,7.6-12s8.8-3.7,13.9-2.5"></path><path d="M323.2,396.8l-1.3,15.4h1.5c2.4.3,4.2.3,5.5,0s2.2-1.1,3-2.2,1.2-2.6,1.4-4.4c.2-2.7-.2-4.7-1.4-6.1-1.2-1.4-3.1-2.2-5.9-2.4l-2.8-.2h0ZM321.8,414.1l-.8,9.9c-.2,1.9-.1,3.1,0,3.6.2.5.6.9,1.1,1.3.6.3,1.7.6,3.3.7v1l-18.1-1.5v-1c1.7.1,2.8,0,3.4-.2.6-.3,1-.6,1.3-1.1s.5-1.7.6-3.6l1.9-22.9c.2-1.9.1-3.1,0-3.6-.2-.5-.6-.9-1.1-1.3-.6-.3-1.7-.6-3.3-.7v-1l16.5,1.4c4.3.4,7.4.9,9.3,1.7,1.9.8,3.5,2,4.6,3.7s1.6,3.6,1.4,5.7c-.2,2.6-1.3,4.7-3.3,6.2-1.3,1-3,1.6-5.2,2l7.5,12.6c1,1.6,1.7,2.7,2.1,3.1.7.6,1.5,1,2.4,1.1v1l-11.2-.9-10-17-2.3-.2h0Z"></path><path d="M400.6,395l.5,12.3h-1c-.9-3.1-2.4-5.5-4.6-7.1s-4.6-2.4-7.2-2.2c-2.2,0-4.2.8-6,2.2-1.8,1.3-3.1,3.1-3.8,5.2-1,2.7-1.4,5.6-1.3,8.8.1,3.2.7,6,1.6,8.6s2.2,4.5,4,5.7c1.8,1.3,4,1.8,6.7,1.7,2.2,0,4.2-.7,6.1-1.7,1.8-1.1,3.7-2.8,5.6-5.3v3.1c-1.8,2.2-3.8,3.7-5.9,4.8-2.1,1-4.6,1.6-7.5,1.7-3.8.2-7.2-.4-10.1-1.8-3-1.4-5.3-3.5-7.1-6.2-1.7-2.8-2.6-5.7-2.8-8.9-.1-3.4.6-6.6,2.2-9.7s3.9-5.5,6.8-7.3,6.1-2.8,9.4-2.9c2.5-.1,5.1.3,7.9,1.3,1.6.6,2.7.8,3.1.8.6,0,1-.2,1.4-.7.4-.4.6-1.1.7-2h1l.3-.4Z"></path><path d="M441.9,413.8l.3,12.5-31.2,4.1v-1c-.1,0,1-.2,1-.2,1-.1,1.8-.4,2.4-.9.4-.3.7-.8.9-1.4.1-.4,0-1.5-.1-3.3l-3-23.1c-.2-1.8-.5-2.9-.7-3.3s-.7-.8-1.3-1c-.6-.3-1.4-.3-2.4-.2l-1.2.2v-1c-.1,0,18.6-2.5,18.6-2.5v1c.1,0-1.4.2-1.4.2-1,.1-1.8.4-2.4.9-.4.3-.7.8-.9,1.4-.1.4,0,1.5.1,3.3l2.9,22.4c.2,1.8.5,2.9.8,3.4s.7.8,1.4.9c.5,0,1.5,0,3.2-.2l2.9-.4c1.9-.2,3.4-.8,4.5-1.6,1.2-.8,2.1-2,2.8-3.5.7-1.5,1.3-3.7,1.8-6.6h1.1,0Z"></path><path d="M457.4,389.3l3.1,14.1.7-.2c2.2-.5,3.6-1.5,4.3-3.1.7-1.6.9-3.8.6-6.5l1-.2,4,18.1-1,.2c-.6-1.9-1.4-3.4-2.3-4.6-.9-1.1-1.9-1.8-2.8-2-1-.2-2.3-.2-3.9.2l2.1,9.7c.4,1.9.8,3.1,1,3.4.3.4.6.7,1.1.8.5.2,1.2.2,2.2,0l2.1-.5c3.2-.7,5.7-2,7.3-3.9,1.6-1.9,2.5-4.5,2.7-7.7l.9-.2.8,11.3-29.9,6.5-.2-.9,1.1-.2c1-.2,1.8-.6,2.3-1.1.4-.3.6-.8.8-1.4,0-.4,0-1.5-.4-3.3l-5-22.7c-.3-1.6-.6-2.5-.8-2.9-.3-.6-.7-.9-1.2-1.2-.7-.3-1.7-.4-2.8-.1l-1.1.2-.2-.9,28.9-6.3,2.2,10.2-1,.2c-1-2.4-2.1-4-3.3-4.9-1.1-.9-2.6-1.4-4.3-1.6-1,0-2.8.1-5.5.7l-3.6.8h0Z"></path><path d="M506.7,398.4l-8.7-10.1-1.5,13.3,10.2-3.2h0ZM508.1,400l-11.9,3.7-.4,3.7c-.1,1.2,0,2.2.1,2.9.3.9.9,1.5,1.8,1.7.5.1,1.7,0,3.5-.4l.3.9-11.2,3.5-.3-.9c1.2-.6,2-1.4,2.5-2.4.5-1.1,1-3.1,1.3-6l3.7-30.7h.5c0-.1,20.8,23.7,20.8,23.7,2,2.3,3.5,3.6,4.4,4.1.7.3,1.6.4,2.7.2l.3.9-16.3,5.1-.3-.9.7-.2c1.3-.4,2.2-.9,2.6-1.4.3-.4.3-.8.2-1.3,0-.3-.2-.6-.4-.9,0-.1-.5-.7-1.3-1.6l-3.1-3.6h-.2Z"></path><path d="M530.3,365.2l24.5,13.6-5.8-14.1c-.8-2-1.6-3.2-2.5-3.6-1.2-.6-2.6-.5-4.4.3l-.4-.9,10.8-4.5.4.9c-1.3.8-2.1,1.4-2.5,1.8-.4.5-.5,1.1-.5,1.8s.3,1.9,1,3.4l11.3,27.2-.8.3-33.4-18,8.6,20.8c.8,1.9,1.7,3,2.9,3.3,1.1.3,2.3.2,3.4-.2l.8-.3.4.9-11.6,4.8-.4-.9c1.8-.8,2.9-1.7,3.3-2.7.4-1,.2-2.4-.5-4.1l-9.6-23.1-1.1-.6c-1.1-.6-1.9-.9-2.5-.9s-1.5.1-2.5.5l-.4-.9,11.6-4.8h0Z"></path><path d="M588.2,376.4l.4.9-16.5,8.3-.4-.9,1-.5c.9-.5,1.6-1,2-1.6.3-.4.4-1,.4-1.6s-.4-1.5-1.2-3.1l-10.4-20.8c-.8-1.6-1.4-2.6-1.8-2.9-.4-.3-.9-.5-1.6-.5s-1.5.2-2.3.6l-1.1.5-.4-.9,16.5-8.3.4.9-1,.5c-.9.5-1.6,1-2,1.6-.3.4-.4,1-.4,1.6s.4,1.5,1.2,3.1l10.4,20.8c.8,1.6,1.4,2.6,1.8,2.9.4.3.9.5,1.6.5s1.5-.2,2.3-.6l1.1-.5Z"></path><path d="M587.2,337.6l26.2,10-7.8-13.1c-1.1-1.8-2.1-2.9-3-3.2-1.2-.4-2.7-.1-4.4.9l-.5-.8,10.1-6,.5.8c-1.2.9-1.9,1.7-2.2,2.2s-.4,1.2-.3,1.9c0,.7.6,1.8,1.4,3.3l15,25.3-.8.5-35.6-13.1,11.5,19.3c1,1.8,2.1,2.7,3.3,2.8,1.2.1,2.3,0,3.3-.7l.7-.4.5.8-10.8,6.4-.5-.8c1.7-1,2.6-2,2.9-3.1.3-1.1,0-2.4-1.1-4l-12.8-21.5-1.1-.4c-1.1-.4-2-.6-2.7-.6s-1.4.3-2.4.8l-.5-.8,10.8-6.4h.3Z"></path><path d="M639.8,301.3l7.4,10.1-.8.6c-3-2.1-5.9-3.1-8.8-3.2-2.9,0-5.5.7-7.7,2.4-2.1,1.6-3.5,3.5-4,5.7s-.3,4.6.7,7.2,2.3,5,3.9,7.3c2,2.7,4.1,4.9,6.2,6.5,2.2,1.6,4.3,2.4,6.5,2.3,2.1,0,4.2-.8,6.2-2.3.7-.5,1.3-1.1,2-1.8.6-.7,1.2-1.4,1.8-2.3l-4.3-5.9c-.8-1.1-1.4-1.8-1.8-2-.4-.2-.9-.3-1.6-.2-.7,0-1.4.4-2.1.9l-.7.5-.6-.8,13.9-10.1.6.8c-1,.8-1.6,1.5-1.9,2-.3.5-.3,1.1-.2,1.8,0,.4.5,1.1,1.2,2.1l4.3,5.9c-1.2,2.1-2.7,4.2-4.4,6-1.7,1.9-3.6,3.6-5.7,5.1-2.7,2-5.2,3.3-7.6,3.8-2.3.6-4.6.8-6.9.6-2.2-.2-4.3-.8-6.2-1.7-2.4-1.2-4.5-3-6.2-5.4-3.1-4.3-4.3-9-3.4-14.2.9-5.2,3.6-9.4,8.2-12.8,1.4-1,2.8-1.9,4.1-2.5.7-.3,1.9-.8,3.7-1.2s2.8-.8,3-1c.4-.3.7-.7.8-1.2s0-1.3-.3-2.3l.8-.6h-.1Z"></path><path d="M444.4,23.9l14.4,24.1,2-15.1c.3-2.1.2-3.6-.3-4.4-.7-1.1-2-1.8-4-2v-1c.1,0,11.7,1.6,11.7,1.6v1c-1.6,0-2.7.1-3.2.3-.5.2-1,.7-1.4,1.3-.4.6-.7,1.8-.9,3.4l-3.9,29.2h-.9c0,0-19.8-32.5-19.8-32.5l-3,22.3c-.3,2,0,3.4.8,4.3.8.8,1.8,1.3,3,1.5h.8c0,0-.1,1.1-.1,1.1l-12.4-1.7v-1c2.1.2,3.5,0,4.3-.6.9-.7,1.4-1.9,1.7-3.8l3.3-24.8-.6-1c-.6-1-1.2-1.7-1.7-2.1s-1.3-.6-2.4-.8v-1c.1,0,12.6,1.7,12.6,1.7Z"></path></g><g><path class="st0" d="M0,0v444.1h724V0H0ZM563.3,336.8c-53.9,29.5-125.4,45.7-201.3,45.7s-147.4-16.2-201.3-45.7c-55.3-30.3-85.8-71-85.8-114.7s30.5-84.5,85.8-114.7c53.9-29.5,125.4-45.7,201.3-45.7s147.4,16.2,201.3,45.7c55.3,30.3,85.8,71,85.8,114.7s-30.5,84.5-85.8,114.7Z"></path><path d="M496.2,223.8c-1.3-.8-2.1-1.2-2.2-1.2-.2,0-.6.3-1.3,1-.9,1-1.3,2.1-1.3,3.5s.4,2.7,1.2,3.5c.8.8,1.8,1.3,3,1.3s2.2-.3,2.9-1c.7-.7,1.1-1.6,1.1-2.7s-.2-1.7-.7-2.4-1.4-1.4-2.7-2.2v.2Z"></path><path d="M530.4,223.8c-1.4-.8-2.1-1.2-2.2-1.2-.2,0-.6.3-1.3,1-.9,1-1.3,2.1-1.3,3.5s.4,2.7,1.2,3.5,1.8,1.3,3,1.3,2.2-.3,2.9-1,1.1-1.6,1.1-2.7-.2-1.7-.7-2.4-1.4-1.4-2.7-2.2v.2Z"></path><path d="M531.3,219l.4-.4c.5-.5.9-1,1.1-1.5.3-.7.4-1.5.4-2.5s-.3-2.3-1-3-1.6-1-2.6-1-1.9.3-2.6,1c-.7.7-1.1,1.4-1.1,2.4s.2,1.3.5,1.8c.4.5,1,1.1,1.8,1.6.4.3,1.4.8,3.1,1.7h0Z"></path><path d="M363.9,117.8c-128.5,0-233.1,47.6-233.1,106.2s104.6,106.2,233.1,106.2,233.1-47.6,233.1-106.2-104.6-106.2-233.1-106.2h0ZM208.8,229.1c-.3.6-.7,1.2-1.3,1.7-.4.4-1.1.8-2,1.3s-1.8.9-2.8,1.1c-1,.2-2.2.3-3.7.3s-2.2-.1-3.6-.4l-2.6-.7c-.7-.2-1.2-.3-1.3-.5,0,0-.1-.2-.2-.4v-.2c0-.1,0-1-.1-2.6v-2.4h2c.7,1.3,1.1,2.2,1.3,2.5.4.6.9,1.2,1.5,1.5.5.4,1.2.7,1.9.9s1.5.3,2.4.3,1.6-.1,2.5-.4,1.7-.8,2.2-1.4c.6-.7.8-1.4.8-2.1s-.5-1.8-1.5-2.6c-.6-.5-2.2-1.1-4.8-1.9-2.6-.8-4.4-1.5-5.5-2.2-1-.6-1.8-1.5-2.4-2.5-.6-1.1-.9-2.1-.9-3.1,0-2,.8-3.7,2.4-5,1.6-1.4,4-2.1,7.2-2.1s1.7.1,3,.3c.8.1,1.9.4,3.2.8.1.4.3,1.1.4,1.9.2,1.3.3,2.3.3,3v.7h-2c-.6-1.7-1.3-2.8-1.9-3.4-1.1-1-2.4-1.5-3.8-1.5s-2.5.3-3.3,1c-.8.6-1.2,1.4-1.2,2.4s.4,1.6,1.2,2.3,2.5,1.4,5.1,2.1c.9.2,1.9.6,3.2,1.1,1.2.5,2.2,1,2.8,1.6.9.8,1.4,1.5,1.8,2.2.3.7.5,1.6.5,2.7s-.2,2.3-.7,3.4v.3ZM221.1,210.4c-.5.2-1,.3-1.6.5s-1.1.3-1.4.5c0,.3-.1.8-.1,1.4v17.9s0,.2.1.4c.7.2,1.3.3,1.9.3s.4,0,1,.1v1.5h-1.3c-.2,0-.9-.1-2.3-.3h-3c-.6,0-1.5,0-2.6.1-.7,0-1.2.1-1.5.1v-1.3c.2,0,.6-.2,1.1-.3.7-.2,1.3-.4,1.6-.6.2-.4.3-.9.3-1.6v-7.4c0-2.5.1-3.7.1-3.8v-6.4c-.1-.1-.1-.3-.2-.6-.5-.2-1.2-.4-2.3-.4h-.6v-1.6l4.8.2h1.1c.7,0,1.7,0,3.2-.1.8,0,1.3,0,1.6-.1v1.4h.1ZM247.7,210.6c-.7.2-1,.3-1.1.4-.5.4-.8.6-.8.7s-.1.4-.1.7v2.4c0,1.8,0,3.2.1,4.3v1.1l.2,6.5v7.2h-1.8l-1.8-2.2-3.8-4.5-2.6-3.2-1.9-2.4c-1.3-1.5-2.4-2.8-3.4-3.9l-2.5-2.7v6.9c.1.4.2.9.2,1.3v3.7c0,1,0,2.1.2,3.3v.7c0,.1,0,.3.2.6.4.2,1.3.3,2.6.4,0,0,.2,0,.4.1v1.5h-.5c-.3,0-1.4,0-3.1-.3-1.6,0-2.7,0-3.3.1h-1.4v-1.4h1.3c.9,0,1.4,0,1.5-.2.2-.2.2-.6.3-1.3,0-2,.1-3.2.1-3.6v-10.9c0-1.4,0-2.4-.2-3,0-.3-.2-.5-.4-.7-.4-.4-.8-.8-1.2-1-.3-.1-1-.3-2.1-.5v-1.3h6.8c1.6,1.7,2.9,3.2,3.9,4.5s4.6,5.6,10.9,13.2v-2.6c0-1.3-.1-2.3-.2-3v-2.6c0-1,0-2-.1-2.8-.1-1.6-.2-2.6-.2-2.8,0-.8,0-1.3-.2-1.5-.2-.3-.7-.5-1.5-.6-.6-.1-1-.3-1.3-.4v-1.1h3.4c0-.1,3.4-.2,3.4-.2h.6v1.2c-.2.1-.5.3-.7.3v-.4ZM272.2,230.4l-.2.6-.3.9c-.8.6-1.9,1-3.3,1.3s-3.1.4-5.2.4-3-.1-4.4-.4c-1.4-.3-2.6-.7-3.6-1.4-1.4-.9-2.6-1.9-3.4-2.9-.8-1-1.4-2.2-1.8-3.4-.4-1.2-.6-2.6-.6-4.1,0-3.7,1.2-6.8,3.7-9.2s5.7-3.6,9.5-3.6,3,0,4.4.2,2.7.4,3.9.7c.2.4.5,1.4,1,3.2.2.8.3,1.6.4,2.5h-1.7c-1.2-1.7-2.5-2.9-3.8-3.6-1.3-.7-2.7-1.1-4.3-1.1s-3.5.8-4.7,2.3c-1.6,2-2.4,4.9-2.4,8.5s.1,3.6.4,4.5c.5,1.5,1,2.6,1.7,3.6.5.7,1.2,1.2,2.1,1.7,1.1.6,2.3.8,3.6.8s2.7-.4,4-1.3c1.3-.8,2.5-2.1,3.7-3.8.5,0,1.1-.1,1.8-.1,0,.5-.1,1-.2,1.5,0,.2-.2,1-.4,2.4v-.2ZM274.6,233.2h-1.9v-1.2c.2,0,.6-.1,1.2-.2,1.1-.1,1.8-.3,2.3-.6.1-.4.2-.8.2-1.4v-18.2c-.1,0-.1-.2-.1-.4-.1-.1-.3-.2-.5-.3-.1,0-.3,0-.5-.1-.6-.2-1.2-.2-1.7-.3h-.7v-1.5c.7,0,1.2,0,1.6.2.8.1,1.8.2,2.9.2s1.3,0,2.9-.1c2.3-.1,4.4-.2,6.3-.2h2.8c.6,0,1.6,0,2.8.2.2.2.3.6.3,1v4.9h-1.1c0-.2-.2-.6-.4-1.1l-.6-1.3c-.2-.6-.6-1.1-1-1.7-.3,0-.6-.1-1-.1h-1c-1,0-2-.1-3.1-.1h-3.4v9.1h.7c1.9,0,3.2,0,4-.1.8,0,1.3-.2,1.5-.4s.4-.4.5-.8c0-.3.3-1.2.5-2.7h1.1v9.5h-1.1c0-.2-.1-.6-.2-1.2-.2-1.2-.4-1.9-.6-2.2-.1-.2-.3-.4-.6-.5-.2,0-1-.1-2.3-.1s-2.8,0-3.6.1v8.3c0,.5.1.8.4,1,.4.3,1.7.4,3.9.4s2.7-.1,3.7-.4c.7-.2,1.3-.6,1.8-1.2.7-.8,1.3-2,1.8-3.5h1.3v1.4l-.7,3.5-.3,2.1h-1.6c-.6,0-2.1,0-4.7-.2-1.8,0-3.9-.1-6.4-.1s-2.8,0-4.6.2h-.8ZM462.5,284.6c0,2.8-1.5,4.7-2.6,4.7s-8.5.6-33,3c-24.5,2.3-49.4,4.7-91.3-.2-41.9-4.9-50-11.7-52.1-12.3-2.1-.6-4.5-2.6-4.3-3.2s9.2-13.6,9.8-14.9c.6-1.3,5.5,2.3,8.3,3.4s20.4,7.7,23.8,8.9c3.4,1.3,5.5,1.5,3.2,2.3-2.3.9-15.8-6-19.6-6.8-3.8-.9-4.9,1.7-6.4,5.5s-5.5,7,2.1,8.1c7.7,1.1,16.2,3.2,20.9,3.8,4.7.6,3.8-3,4.7-7.2.9-4.3,2.8-3.2,3.4-3.2s12.3,1.9,16.4,2.3c4,.4,20.2,1.1,25.3,1.1s10.9-.6,11.1.9-2.8.9-9.2.9-14.9-1.3-17-.9-1.3,2.6-1.3,4-.2,1.7-.6,4.3c-.4,2.6,1.9,3.2,2.6,3.2s22.6-.2,27.5.2c4.9.4,4.9-.4,4.9-1.5s-.6-7.5-.6-10,10.2-1.5,18.5-1.5,31.9-2.1,37.9-2.6c6-.4,14.7-.9,14.7-2.8s-2.3-1.7-6.6-1.3c-4.3.4-25.5,3.2-33.6,3.6s-60.2,3.8-89-2.8c-28.7-6.6-39.4-14.9-39.4-15.1s9.8-8.9,11.3-10.4.2-2.1.4-4.7c.2-2.6,7.2-4,10-5.1s5.7-3.8,5.7-3.8c0,0,2.3,0,2.3-1.1s-16.2-42.6-17.7-49.2c-1.5-6.6,1.5-16,4.3-17.5s12.3-6.6,12.3-6.6c-.6-8.7,2.1-10.9,6.6-11.3,4.5-.4,31.5,1.7,50.7,1.7s40.4-2.8,47.5-2.8,6.8,9.8,6.8,9.8c0,0,10.6.6,10.6,12.6s-23.8,56-23.8,56v1.5c0,.4-.3.7-.7,1,6.4,3.8,23.7,13.9,28.2,17.6,2.9,2.4,2.7,3.9,2.1,4.7l.9,2.1s2.6,2.1,5.3,5.5c2.8,3.4,5.7,11.3,5.7,11.3l3,5.1v9.6h0ZM486.7,233.2h-12.2v-1.2c.5-.1,1.1-.3,1.9-.4,1-.2,1.6-.4,1.8-.5.2-.2.3-.4.3-.7v-17.7c-.9.7-2,1.3-3.2,2-.1,0-.7.3-1.8.8-.4-.6-.7-1-.8-1.3,1.4-.7,2.4-1.2,2.9-1.5.8-.5,1.7-1.2,2.7-2,.4-.4.9-.9,1.6-1.7h3.3v20.7c-.1,0-.1,1.1-.1,1.1,0,.4,0,.6.3.8.2.2.7.3,1.5.4.3,0,1,.1,1.9.3v1.3-.4ZM503.2,229c-.1.3-.4.9-.9,1.5-.5.7-.9,1.1-1.2,1.4-.7.5-1.6,1-2.8,1.4-.8.3-1.7.4-2.7.4s-2.2-.1-3.2-.3c-.7-.2-1.3-.4-1.8-.8-.8-.5-1.3-1-1.7-1.4-.3-.4-.6-.9-.9-1.5-.3-.8-.5-1.6-.5-2.4,0-1.3.6-2.6,1.7-3.6.7-.7,1.8-1.3,3.3-1.9-1.6-.8-2.7-1.7-3.4-2.8-.7-1.1-1.1-2.1-1.1-3s.1-1.5.4-2.4.7-1.7,1.3-2.3c.6-.7,1.5-1.2,2.5-1.7,1-.4,2.1-.7,3.2-.7,2.1,0,3.8.6,5.1,1.7,1.3,1.1,2,2.5,2,4.1s-.3,1.6-.8,2.5c-.6.9-1.1,1.4-1.7,1.7l-1.5.8s.4.3,1.1.7,1.5,1.1,2.4,2.1c.6.7,1,1.4,1.2,1.9s.3,1.2.3,2c0,1.2-.1,2.1-.4,2.7h.1ZM519.9,224.6c-.2.5-.7,1.4-1.5,2.7s-1.9,2.5-3.2,3.5c-1.4,1.1-2.8,1.8-4.3,2.3s-2.7.7-3.7.7-.4,0-.8,0c-.2-.2-.3-.5-.3-.7s0-.4.2-.5c0,0,.5-.3,1.2-.5,1.4-.5,2.6-1.1,3.6-1.8,1-.7,1.8-1.6,2.5-2.6s1.2-2.1,1.4-3.2c.3-1.2.4-2.1.5-2.7,0-.2,0-.8.2-1.6,0-.6,0-1.4,0-2.3,0-3.2-.4-5.3-1.2-6.5-.6-.9-1.4-1.3-2.3-1.3s-1.6.4-2.2,1.1c-.8,1-1.2,2.5-1.2,4.4s0,2.3.2,3.3c.1.7.3,1.3.7,1.9.2.4.5.6.7.7.5.2,1,.4,1.6.4s.7,0,1-.1h.3c.2,0,.3,0,.4.2,0,.1.2.3.2.6,0,.5-.2.8-.6.9-.9.3-1.8.4-2.8.4h-1.2c-1.3-.4-2-.7-2.3-1-.8-.5-1.4-1.1-1.8-1.6s-.7-1.2-.9-1.9c-.3-.9-.4-1.8-.4-2.8,0-1.5.4-2.8,1.1-4.1s1.7-2.2,2.9-2.8c1.2-.6,2.6-1,4-1,2.5,0,4.6.9,6.3,2.7s2.5,4.4,2.5,7.8-.3,3.5-1,5.4h0ZM537.4,229c0,.3-.4.9-.9,1.5-.5.7-.9,1.1-1.2,1.4-.7.5-1.6,1-2.8,1.4-.8.3-1.7.4-2.7.4s-2.2-.1-3.2-.3c-.7-.2-1.3-.4-1.8-.8-.8-.5-1.3-1-1.7-1.4-.3-.4-.6-.9-.9-1.5-.3-.8-.5-1.6-.5-2.4,0-1.3.6-2.6,1.7-3.6.7-.7,1.8-1.3,3.3-1.9-1.6-.8-2.7-1.7-3.4-2.8s-1.1-2.1-1.1-3,0-1.5.4-2.4c.3-.9.7-1.7,1.3-2.3.6-.7,1.5-1.2,2.5-1.7,1-.4,2.1-.7,3.2-.7,2.1,0,3.8.6,5.1,1.7,1.3,1.1,2,2.5,2,4.1s-.3,1.6-.8,2.5c-.6.9-1.1,1.4-1.7,1.7l-1.5.8s.4.3,1.1.7c.7.4,1.5,1.1,2.4,2.1.6.7,1,1.4,1.2,1.9s.3,1.2.3,2c0,1.2,0,2.1-.4,2.7h.1Z"></path><path d="M497.1,219l.4-.4c.5-.5.9-1,1.1-1.5.3-.7.4-1.5.4-2.5s-.3-2.3-1-3-1.6-1-2.6-1-1.9.3-2.6,1-1.1,1.4-1.1,2.4.2,1.3.5,1.8c.4.5.9,1.1,1.8,1.6.4.3,1.4.8,3.1,1.7h0Z"></path><path d="M430.4,169c-3,.6-3.8,7-8.5,7s-30.2-1.3-50.2-1.1-35.3,2.3-43,2.8c-7.7.4-7.7-6.8-8.1-7.4-.4-.6-9.2,1.5-7.7,12.6s16.4,44.7,17.9,48.5c.3.9.6,1.6.8,2.3.8-.9,2.3-1.8,3.9-2.3,3.4-1.1,29.2-8.1,47.3-8.1s18.7.7,24.4,1.7c4.7-9.5,21.1-42.7,23.2-47.1,2.6-5.1,3-9.6,0-8.9h0Z"></path><path d="M287,91.8l.2,1.7.4,2.3c0,.6.2,1.5.3,2.5v.6c.7,0,1.2,0,1.4-.2,2.2-.3,3.6-1,4.4-2s1.1-2.2.8-3.6c-.1-.9-.4-1.7-.7-2.4-.3-.7-.7-1.3-1.1-1.6-.6-.5-1.2-.8-2-1-.6,0-1.5,0-2.7,0s-1.1.2-1.5.3v.4l.5,2.8v.2Z"></path><path d="M255.2,108.9c0,.2.2.4.3.8.3,1,.6,1.7.9,2.1.9,1.6,1.6,2.6,1.9,3,.5.6,1.2,1.2,2.1,1.7.5.3,1.1.5,1.9.6s1.5,0,2.2,0c1.4-.3,2.5-.9,3.5-1.9s1.7-2.3,2-4.2c.3-1.8.2-4.1-.4-6.8-.2-1.1-.7-2.6-1.2-4.4l-.2-.4c0,0-.2-.4-.4-.8-1-2.2-2.2-3.7-3.8-4.6-1.6-.9-3.4-1.1-5.3-.7-1.1.2-2,.7-2.7,1.5-.7.7-1.2,1.5-1.5,2.3-.5,1.3-.7,2.7-.7,4.1s.2,3.1.7,5.1c.3,1.2.5,2,.7,2.5h0Z"></path><path d="M357.3,87.7v5.4h1.4c2.2,0,3.7-.5,4.7-1.3.9-.9,1.4-2,1.3-3.5,0-.9-.1-1.7-.4-2.5-.2-.8-.5-1.4-.9-1.7-.5-.5-1.1-1-1.9-1.2-.6-.2-1.5-.3-2.7-.3s-1.1,0-1.5,0v5Z"></path><path d="M211.9,111.1l.5,1.7.8,2.2c.2.6.5,1.4.8,2.4l.2.6c.6-.2,1-.3,1.3-.4,2.1-.7,3.4-1.7,3.9-2.8.6-1.1.6-2.4.1-3.7-.3-.8-.7-1.6-1.2-2.2-.5-.7-.9-1.1-1.4-1.4-.6-.4-1.4-.5-2.2-.5s-1.5.2-2.7.6c-.6.2-1,.4-1.4.6v.4l1.1,2.7.2-.2Z"></path><path d="M325.5,88.7l.2,3.1c0,1,.2,1.9.2,2.7v2l.4,3.4v2.1c.2,1.9.6,3.2,1.3,3.9,1,.9,2.4,1.3,4,1.2,1.3,0,2.2-.3,2.8-.6,1.2-.6,2.2-1.4,2.9-2.3.7-.9,1.2-2.2,1.4-3.9.3-1.7.4-3.3.2-5.1-.2-2.8-.8-5.1-1.7-6.9-.9-1.7-2.2-3-3.7-3.8s-3.2-1.2-5-1c-1.3,0-2.4.4-3.4.8v.9l.3,3.6h.1Z"></path><path d="M502.9,117.4v-4.6c0-1.8-.1-3.2-.2-4.1l-5.2,6.9c2.8,1,4.5,1.6,5,1.7h.5,0Z"></path><path d="M306.3,260.1c-.8,4.5,46,13,67.7,13.2s65.3-4,68.1-4.3c2.8-.2,9.6-1.9,4.3-6.2-5.3-4.3-16.8-1.1-22.3-.4-5.5.6-39,4.7-66.6,2.8-17.6-1.2-35.6-6.3-46.4-9.9-2,.9-4.2,2.3-4.7,4.7h-.1Z"></path><path d="M417.4,237.8c.6,2.6,2.3,1.1,2.3-1.1s-1-1.4-1.9-1.4c.3.3-.8,1-.4,2.5Z"></path><path d="M402.9,234.6c-3.6.9-.9,3.2.4,3.4s3.4,0,3.4-1.5-.5-1.5-1-2c-.7-.2-1.7-.2-2.8,0h0Z"></path><path d="M322.2,242.9c1.7.8,4.9-.9.6-2.8-3.8-1.7-3,1.6-2.8,2.4.6-.1,1.5,0,2.2.4h0Z"></path><path d="M313.1,246.9c-.7,0-1.6,2-2.1,3.3.8.3,1.7.6,2.7.9.1-1.7.2-4.2-.6-4.2Z"></path><path d="M308.8,248c-.7-.1-1.3.3-1.8.8.6.2,1.3.5,2.1.8.3-.6.6-1.5-.3-1.6h0Z"></path><path d="M301.6,259.9c3.1,1.7,4.8-3.1,5.5-5.8-.7-.2-1.3-.5-1.9-.7-3,2.1-6.3,5-3.7,6.5h.1Z"></path><path d="M331.2,237.6c-.9.4-7.9.4-7.9.4,0,0-1.9-2.1-3.4-2.1s-.8,1.8-.6,2.9c4.8,0,6.6,2,10.8,2.2,4.7.2,5.1-2.6,5.1-2.6,0,0,3.6,1.1,3.8-.2.2-1.3-2.6-2.6-6.4-2.6s-.6,0-.8,0c0,1.1-.2,1.8-.6,2h0Z"></path><path d="M407.2,234.5c1.5.3,3.8.5,6.9.5s2.8,0,3.3.1c.8-.2,1.8-.3,2.5-.3s.9-.7.2-2.1c-1.1-2.1-3.8-3.2-4.9-1.7s-2.6,1.6-5.7,1.9c-4.7.4-5.3-3.6-5.3-3.6l-3,.9c-1.1.3-1.8,1.3-2.2,2.4.8.4,2,.7,3.5.7,2.7,0,4,.6,4.8,1.2h0Z"></path><path d="M320.3,247.4c7.5,1.9,29.2,4.3,51.3,4.9,22.1.6,64.7-3.8,68.1-4s-.6-2.6-2.1-3.2c-1.5-.6-8.7-4.9-11.3-6.6-2.6-1.7-4-2.3-5.3,0s-6.8,3.6-13.6,2.3c-4.7-.9-8.7-2.7-10.7-3.7-2.9.3-9.7.9-16.6,1.6-9.2.9-25.8,2.8-32.4,2.8s-13.4,3.6-13.4,3.6c0,0-8.7,1.7-12.8-.4-2.2-1.1-2.3-1.8-1.7-2-.5-.2-1.6-.7-2.6-1.2-1,.3-2.6.7-4.8,1.1-3.8.6.4,3,7.9,4.9h0Z"></path><path d="M305.4,245.9c-.6,0-.8.9-.9,2,.4.2,1,.4,1.8.7,0-1.2,0-2.7-1-2.7h.1Z"></path><path d="M392.7,256.1c-7.7.2-5.3-1.9-7.7-1.9s-4.3,1.3-4.3,1.3c0,0-19.8-1.1-21.7-1.1s-2.3,2.1-3.6,2.1-1.9-2.6-1.9-2.6c0,0-.9.9-1.1,1.7-.2.9-6.8,0-10,0s-5.7-3.4-5.7-3.4c0,0-17.7-4-20-3.8-1.5.1-1.8,1.8-1.9,3.1,2.8.9,6,1.9,9.6,2.9,11.9,3.2,21.1,4,64.3,4.3s53.9-3.4,56.8-3.4,1-1.9,0-3.3c-3.1.4-12.5,1.6-16.1,2.4-4.3,1.1-29.2,1.5-36.8,1.7h.1Z"></path><path d="M362,70.5c-153.4,0-278.2,68-278.2,151.5s124.8,151.5,278.2,151.5,278.2-68,278.2-151.5-124.8-151.5-278.2-151.5ZM570,134c-.2-.3-.7-1-1.7-2l.8-1.2,1.3,1,.5.3c.6.4,1.1.7,1.3.9,0,0,.5.4,1.1.9,0,.1.2.2.3.3,0,0,.4.3,1,.7s.9.6,1,.7c0,0,.3.2.5.4.4,2.8.7,5.1.8,7s.8,8.6,1.9,20.2l.3-.4,1.4-2c.8-1.2,1.5-2.1,1.9-2.8.5-.7,1-1.5,1.7-2.5.7-.9,1.3-1.8,1.8-2.6,1-1.6,1.6-2.5,1.7-2.7.5-.7.8-1.2.8-1.5s-.4-1-1.1-1.7c-.5-.5-.8-1-1-1.3l.8-1,.4.3,3.1,2.2,3.5,2.5c.2.2.5.3.7.5l-.8,1.1c-.3,0-.7-.1-1-.2-.8-.3-1.3-.5-1.4-.5h-1.3c-.2,0-.4.2-.6.5,0,0-.2.3-.5.7,0,.2-.5.7-1.1,1.4-1.2,1.6-2.2,3-2.8,4-.2.3-.5.7-.7,1.1l-4.3,6.1c-.3.4-.5.7-.7.9l-1.6,2.1-.6.9-.7.9c-.3.5-.5.8-.6.9l-.7.9-1.8-1.3-.3-3.5-.7-6.9-.4-4.9-.3-3.6c-.2-2.3-.5-4.4-.7-6.2l-.6-4.4-4.6,6.4c-.3.4-.6.8-.9,1.2l-.9,1.2-1.6,2.3c-.7.9-1.4,2-2.1,3.1-.2.3-.3.5-.4.7,0,.1,0,.4-.2.7.3.5,1.1,1.2,2.4,2.3,0,0,.2.2.3.4l-1,1.4-.6-.4c-.3-.2-1.3-1.1-2.9-2.6-1.7-1.2-2.8-2-3.3-2.4-.6-.4-.9-.6-.9-.6,0,0-.3-.2-.5-.5.2-.3.3-.5.5-.7,0-.1.3-.3.5-.6.3.2.6.3.8.5,0,0,.3.2.6.5.9.7,1.4,1,1.7.9.3,0,.6-.3,1.1-.9,1.4-1.7,2.3-2.8,2.6-3.2l.7-.9,4.2-5.5,2.6-3.5c1-1.3,1.6-2.3,1.8-2.9,0-.3.2-.6.2-.9,0-.7-.2-1.3-.5-1.8l-.2-.4ZM601,224c0,29.7-24.9,57.6-70,78.4-44.7,20.6-104,31.9-167.1,31.9s-122.4-11.3-167.1-31.9c-45.2-20.8-70-48.6-70-78.4s24.9-57.6,70-78.4c44.7-20.6,104-31.9,167.1-31.9s122.4,11.3,167.1,31.9c45.2,20.8,70,48.6,70,78.4ZM554.2,124.5c-.2-.2-.4-.3-.6-.4l.9-1.6,4.7,3c.6.4.9.6,1.1.7.7.4,1.7.9,3.3,1.7.9.4,1.4.7,1.6.8,0,.2-.2.4-.3.6,0,.2-.3.5-.5.8-.5,0-1.2-.2-1.8-.4-.7-.2-1.2-.3-1.7-.3-.2.3-.5.7-.9,1.3-.3.5-.5,1-.7,1.3-1.2,2.1-2.1,3.6-2.8,4.8l-2.8,4.9-1.5,2.4-2,3.7-.5.7s0,.3,0,.5c.6.5,1.1,1,1.7,1.4,0,0,.4.3.9.7-.2.4-.3.7-.5,1,0,.1-.2.3-.4.6,0,0-.3-.1-.3-.2-.4-.2-.6-.3-.6-.3,0,0-.2-.1-.4-.3,0-.1-.8-.6-2.1-1.5l-2.9-1.7c-.6-.3-1.5-.8-2.7-1.3-.8-.3-1.3-.6-1.5-.7l.8-1.3c.3,0,.7.2,1.3.3.8.2,1.5.3,2,.3.4-.3.8-.7,1.2-1.4l1.2-2.2,2.4-4.2.6-1c1.5-2.4,2.2-3.6,2.3-3.7l1.4-2.5.6-1,1.1-2.1.4-.8c0,0,0-.3.2-.7-.3-.5-1-1.1-2-1.7v-.2ZM497.1,112.4l8.5-11.1c.4,0,.8.3,1.2.4l.8.3v.4l.5,9.3c.1,2,.2,3.9.2,5.8s0,3.4.1,4.5v3.2c0,.8,0,1.7.2,2.9,0,.6.1,1,.2,1.2.2.3.5.5.9.8.4.2.9.5,1.3.9h0c.4-.1.6,0,.9.2,0,0,.3.1.7.3,1,.4,1.6.6,1.9.5.3,0,.6-.5.9-1.2,1-2,1.6-3.2,1.8-3.7l.5-1.1,2.8-6.3,1.7-4c.7-1.5,1-2.6,1.1-3.2v-1c-.2-.7-.5-1.2-.9-1.7-.2-.3-1-.8-2.1-1.6l.5-1.4,1.5.7.5.2c.7.3,1.2.5,1.5.6,0,0,.5.3,1.2.6,0,0,.3,0,.4.2,0,0,.5.2,1.1.5s1,.4,1.1.4.3,0,.5.3c1,2.6,1.8,4.8,2.4,6.6.6,1.8,2.7,8.2,6.4,19.3l.2-.5.9-2.3c.6-1.3,1-2.4,1.3-3.2s.7-1.7,1.1-2.8c.5-1.1.9-2.1,1.2-3,.6-1.8,1-2.8,1.1-3,.4-.8.5-1.4.4-1.6,0-.4-.6-.9-1.4-1.4-.6-.4-1-.8-1.2-1.1l.5-1.1h.5c0,0,3.5,1.6,3.5,1.6l3.9,1.6c.3,0,.5.2.8.3l-.5,1.3h-1c-.8,0-1.3-.2-1.5-.2-.8,0-1.2.2-1.3.2-.2,0-.3.3-.5.6,0,0,0,.4-.3.8,0,.2-.3.8-.7,1.6-.8,1.9-1.4,3.4-1.8,4.5,0,.4-.3.8-.5,1.2l-2.8,6.9c-.2.5-.3.8-.4,1l-1.1,2.4-.4,1-.5,1c-.2.6-.3.9-.4,1l-.5,1-2.1-.8-1-3.3-2.2-6.6-1.5-4.6-1.1-3.5c-.7-2.2-1.4-4.1-2.1-5.8l-1.6-4.1-3.1,7.3c-.2.4-.4.9-.6,1.4l-.6,1.4-1,2.6c-.4,1.1-.9,2.3-1.3,3.5,0,.3-.2.6-.2.7v.7c.4.4,1.3,1,2.8,1.7,0,0,.2.2.4.3l-.6,1.6-.7-.3c-.4-.2-1.5-.8-3.4-1.9-1.9-.8-3.1-1.3-3.8-1.6-.6-.2-1-.4-1.1-.4,0,0-.2-.1-.3-.2-.9-.3-1.8-.7-2.9-1.1-1.1-.5-2-.8-2.9-1.1-1-.3-1.7-.5-2.1-.7l-3.2-.9-.9-.3c.2-.5.3-.9.5-1.3l2.2.2h1.2c.2,0,.3-.2.3-.4v-2.8l-.2-4.4-7-2.4c-.5.6-1.5,2-3.2,4.2-.5.6-.7,1.1-.8,1.3-.1.3-.1.6,0,.8.2.3.7.7,1.4,1.1.1,0,.5.3,1.2.7-.2.5-.3.8-.3,1s-.1.3-.2.4c-.8-.3-2.5-1-5.3-2.1h-.8c-1-.2-1.8-.5-2.7-.7h-.3c0,0,.5-1.5.5-1.5.3,0,.7,0,1.3,0,1,0,1.6,0,1.9,0,.3,0,.6-.4,1.1-.9l7.2-9.4.2.5ZM464.1,116.4c.2-.4.4-.8.6-1.5,0-.2.2-.6.3-1.2l.2-.6,1.9-7.8.6-2.3.7-3.3.6-2.3.5-2.6v-.4c0-.2-.3-.3-.5-.4-.1,0-.3-.2-.5-.3-.7-.3-1.3-.6-2-.8-.2,0-.5-.2-.8-.3l.5-1.6c.7.2,1.3.4,1.8.7,1,.4,2.1.8,3.4,1.1.5,0,1.6.4,3.5.7,2.8.6,5.4,1.1,7.6,1.7l3.4.8c.8.2,1.9.6,3.3,1.2.2.3.2.7,0,1.2l-1.1,4.2-.2.9s0,.2-.1.4l-.8-.2s-.3,0-.6-.2c0-.3,0-.7-.1-1.3l-.4-1.6c-.1-.7-.4-1.4-.7-2.2-.3-.2-.7-.3-1.2-.5-.1,0-.5-.2-1.1-.4-1.1-.4-2.4-.8-3.7-1.1-1.5-.4-2.9-.7-4.1-.9-.1.3-.5,1.7-1.1,4l-.8,3.5-.7,2.6c.3,0,.6.2.8.3,2.2.6,3.9.9,4.8,1.1,1,0,1.6.2,1.9,0,.3,0,.5-.4.8-.7.2-.3.7-1.2,1.4-2.9h.2l1.1.3c-.3,1.2-.5,2.2-.6,2.8-.4,1.4-.6,2.4-.7,2.8s-.2.7-.3,1c0,.4-.2,1-.4,1.8-.2.8-.3,1.4-.4,1.8v.5c-.1,0-1.4-.3-1.4-.3v-4c0-.3-.3-.5-.6-.7-.2-.2-1.1-.4-2.7-.8-1.9-.5-3.3-.8-4.3-.9,0,.4-.1.6-.2.7-.4,1.6-.7,3-.9,4.1l-1.2,4.4c-.1.5,0,.9.2,1.2.4.4,2,1,4.6,1.6,1.7.4,3.2.7,4.5.7s1.7-.3,2.6-.8c1.1-.7,2.1-1.8,3.1-3.3.4,0,.7,0,1,.2.1,0,.3,0,.6.2-.1.3-.2.6-.3.8l-.3.6-1.7,3.7-.9,2.3c-.8-.2-1.5-.3-1.9-.4-.7-.2-2.6-.7-5.6-1.6-2.1-.6-4.7-1.3-7.7-2.1-1.5-.4-3.4-.8-5.6-1.2l-.8-.2-2.3-.5.4-1.4c.3,0,.8,0,1.5,0,1.3.2,2.3.2,2.9,0v-.4ZM437.3,111.5h2.3c.1-.3.2-.6.3-.8l.5-2.7.6-2.7.3-1.7.4-2,.4-2.2.9-4.6.4-2.1v-.3c.2-1.5.3-2.3.2-2.5,0-.2-.4-.4-1-.8,0,0-.3-.2-.7-.4-.3-.2-.6-.3-.8-.4-.4-.2-.7-.4-.9-.6,0-.4,0-.6.1-.8,0,0,0-.3.1-.5h.4c.3,0,1.4.3,3.3.8l2.7.5,2,.4c.9.2,2,.3,3.4.4h.7c.2,0,.3,0,.4.2v.9c0,.3-.2.5-.3.7,0,0-.4,0-.9,0l-2.5.2s-.2,0-.4,0c0,0-.1.2-.2.2v.6c-.1,0-.4,1.3-.4,1.3v.6c-.1,0-.1.5-.4,1.1,0,.2,0,.4-.1.5,0,.2,0,.6-.2,1.1-.1.8-.2,1.6-.3,2.2-.1.7-.3,1.5-.5,2.5,0,.3-.2.8-.3,1.4l-1.9,9.9v.9l1.8.4,1.1.2,1.2.2c2,.4,3.7.4,5,0,.9-.2,1.6-.5,1.9-.9.5-.3.9-.7,1.3-1.2.4-.4.8-1.2,1.4-2.2h.6c.3.2.6.3,1,.4v.6c-.3,1-.7,2.7-1.4,5.2-.3,1-.5,1.6-.6,1.8h-1.3c0,0-1-.3-1-.3-.1,0-.9-.2-2.2-.6-.3,0-1.5-.3-3.6-.8-2.2-.5-4.3-.9-6.4-1.3l-3.9-.6c-1.5-.2-2.9-.4-4.2-.5h-.3s-.2,0-.4,0v-.4c.1-.6.2-1,.4-1.2h1.7l.3-.2ZM411.6,96.7c.5-4.2,2.2-7.5,5-9.9s6.2-3.4,10.1-2.9c1.6.2,3.1.5,4.5.8s2.7.8,3.8,1.3c.1.4.3,1.7.6,3.7.1.9.1,1.9,0,2.9l-1.7-.2c-1-2.1-2.1-3.6-3.3-4.6-1.2-1-2.6-1.6-4.2-1.8-2-.2-3.7.4-5.1,2-1.9,2.1-3.1,5.2-3.7,9.3-.3,2.4-.4,4.1-.2,5.1.3,1.7.7,3.1,1.3,4.2.4.9,1.1,1.6,1.9,2.1,1,.8,2.2,1.2,3.5,1.4,1.4.2,2.8,0,4.3-.9,1.4-.8,2.9-2.1,4.3-3.8h1.9c-.1.5-.3,1.1-.5,1.6,0,.2-.3,1.1-.8,2.6l-.2.6-.4,1c-.9.6-2,.9-3.5,1.1s-3.2,0-5.3,0c-1.6-.2-3-.5-4.4-1s-2.5-1.2-3.4-2c-1.3-1.2-2.3-2.4-3-3.7-.7-1.3-1.1-2.6-1.4-4.1-.2-1.4-.2-3,0-4.7h0ZM373.4,81.3v-.6c.4,0,1.2,0,2.4,0h.2c.3,0,.5.2.7.2h.2c.2,0,.7,0,1.6.2,1.6.2,2.9.3,3.8.4h3.5v1.6c-.4,0-.7.2-1.1.2h-.9c-.3.2-.8.2-1.3.3h-.1v.4c.4,1,1.2,2.6,2.5,4.8.3.7.7,1.3,1,2,0,.2.4.8,1,2,0,0,.1.3.2.4.1.2.2.4.3.6.2.4.3.6.4.7.2.5.4.8.6,1.1l2.1-3c.7-.9,1.6-2.2,2.8-4h0c0,0,1.8-3.2,1.8-3.2.3-.4.4-.7.4-.9v-.4c-.2,0-.3-.2-.5-.3,0,0-.3,0-.8,0-.3,0-.5,0-.8-.2-.2,0-.4,0-.6-.2v-1.6l4,.4c.1,0,.3,0,.5,0h3.4v1.6h-.3c-1.1.2-1.8.4-2.3.7-.6.5-1.4,1.6-2.5,3.4l-2.7,4c-1.6,2.2-2.6,3.7-3.1,4.5-.1.2-.2.4-.3.7v2.5c-.1,0-.1.5-.1.5,0,.4-.1.7-.1,1.1l-.2,5.4c0,0,.1.2.2.2.2,0,.6.2,1.2.3,1.2.2,1.9.3,2.1.5.1,0,.1.2.1.4v1.1h-2.2c0,0-2.1-.4-2.1-.4l-1.4-.2h-4.6c-.6,0-1.1,0-1.5,0h-1.3v-1.5l3.6-.6c.2,0,.3,0,.5-.2v-1.2c0-2.2.1-3.6.2-4.4v-1.9c0-.9-.3-1.9-1.1-3.1-.3-.5-.5-.8-.6-1l-3.5-6.5-1.6-3.2c0,0-.4-.7-1.1-1.8-.2-.2-.4-.4-.7-.5-.1,0-.7-.2-1.7-.5v-.6l-.2-.3ZM352.1,103.3v-14.6c0-2.9,0-4.8-.1-5.6l-1.1-.2c-1,0-1.7,0-2.1-.2v-1.5c.6,0,1.2-.2,1.8-.2h1.8c.9,0,1.4,0,1.5,0h1l2.4-.2c1.5-.2,3.1-.3,4.8-.3,2.6,0,4.8.7,6.3,2.2,1.6,1.5,2.4,3.2,2.4,5.1s-.4,2.7-1.2,3.9c-.8,1.2-2.1,2.1-3.9,2.7.2.3.4.6.6,1,.5.8,1,1.6,1.3,2.2l3.1,5.5c.8,1.4,1.3,2.3,1.5,2.5s.7.5,1.5.8c.6.2,1,.5,1.3.7,0,.2.1.5.1.6v.5h-1.9c0,0-.8,0-.8,0h-3.4c-.1,0-.6,0-1.4.2-.3,0-.6,0-.8,0l-.7-1.4c-.5-1.1-.9-1.8-1.2-2.4-.6-1.4-1.6-3.5-3-6.5-.7-1.4-1.1-2.2-1.4-2.3-.4-.3-1.1-.4-2-.4h-1.3v6.2c.1,0,0,4,0,4,.4.2.8.4,1.4.5,1,.2,1.9.5,2.6.8v1.6h-1.3c-2.8-.2-4.4-.3-4.9-.3h-.7l-2.7.2c-.8,0-1.6.2-2.2.2h-.8v-1.4c.3-.2.8-.3,1.5-.4.7,0,1.2-.3,1.8-.5,0-.3,0-.5.1-.6v-2.5ZM319,82.6c2.3-.6,5.2-1,8.6-1.2,2.9-.2,5,0,6.3,0,2,.4,3.7,1.1,5.1,2.1,1.8,1.3,3.2,2.9,4.1,4.8,1,1.9,1.5,3.9,1.7,6.2.2,2.8-.2,5.3-1.2,7.4s-2.5,3.8-4.6,5.2c-1.4,1-3.4,1.5-6,1.7h-5.2c0,0-1.6,0-1.6,0,0,0-.5,0-.5,0h-1.6c0,0-2.1.3-2.1.3,0,0-.7,0-2,.3-.4,0-1,0-1.6.2h-.9c0-.3,0-.9-.2-1.7.2,0,.6-.2,1.2-.3,1.2-.3,1.9-.7,2.3-1.1.2-.3.3-.7.4-1.4,0-.2,0-2.3-.3-6.5l-.2-2.3-.2-2.8-.5-7.2v-.8c0-.4-.2-.6-.4-.8,0,0-.4,0-.8,0-.3,0-.7,0-1.1.2-.6,0-1.1.2-1.5.3h-.4v-1.9c.6-.3,1.7-.6,3.1-1h.1ZM277.8,88.2c.6-.2,1.2-.4,1.7-.4s.9,0,1.8-.3c.9,0,1.4,0,1.5,0l1-.2,2.4-.5c1.5-.4,3-.7,4.7-1,2.6-.4,4.8,0,6.6,1.2,1.8,1.2,2.8,2.8,3.1,4.7.2,1.4,0,2.8-.7,4-.7,1.3-1.8,2.3-3.4,3.2.2.3.5.6.8.9.7.8,1.2,1.4,1.6,1.9l3.9,5c1,1.3,1.6,2.1,1.9,2.3.3.2.8.4,1.6.6.6.2,1.1.3,1.4.5.1.2.2.4.2.6v.5h-.5l-.4.2h-1.8c-.4,0-.9,0-1.5.2l-1.9.3c-.1,0-.6,0-1.3.3-.3,0-.6.2-.8.2l-.9-1.3c-.7-1-1.2-1.7-1.5-2.2-.8-1.3-2.1-3.3-3.9-6-.8-1.3-1.4-2-1.7-2.1-.4-.2-1.1-.3-2,0-.3,0-.7,0-1.3.2,0,.4,0,.9.2,1.5l.8,4.6.5,4c.4.2.9.3,1.5.3,1,0,1.9.2,2.7.4.1.7.2,1.2.2,1.6h-.5l-.8.2c-2.8,0-4.4.3-4.9.3s-.6,0-.7,0l-2.6.6c-.8.2-1.5.4-2.2.5h-.8c0-.2-.1-.4-.1-.5v-.7c.3-.2.8-.5,1.4-.7s1.2-.4,1.7-.7v-.6c0-.2,0-.9-.3-2l-.7-4.7-.3-2.5-.3-1.9v-1.1c-.3-1.5-.5-3-.7-4.3-.4-2.9-.8-4.8-.9-5.6h-3.3l-.2-1.3v-.2h-.3ZM248.2,102.5c.2-1.3.5-2.6,1.1-3.8.6-1.2,1.3-2.4,2.4-3.4,1-1.1,2.1-1.9,3.3-2.6,1.2-.6,2.5-1.1,4.1-1.5,2.6-.6,5-.6,7.2,0s4,1.8,5.5,3.3c2,2.1,3.2,4.4,3.8,7,.9,3.9.4,7.5-1.4,10.8s-4.9,5.5-9.2,6.4c-1.1.2-2.1.4-3,.4h-2c-1,0-1.6-.2-1.7-.2-1.6-.5-2.9-1.2-3.9-1.9-1-.7-2-1.6-2.8-2.6-.5-.6-1.1-1.6-1.8-3.2-.5-1-.9-2.2-1.2-3.6-.4-1.7-.5-3.5-.2-5.4l-.2.3ZM234.5,98.2c.7-.2,1.1-.3,1.2-.3.7-.2,1.9-.6,3.5-1.2.9-.3,1.4-.5,1.7-.6,0,.3.2.5.2.6,0,.2.1.5.2.9-.4.3-1,.7-1.5,1-.6.4-1.1.7-1.4,1,0,.4.1.9.3,1.6.2.6.3,1.1.5,1.4.6,2.3,1.1,4.1,1.5,5.3l1.6,5.4.7,2.8,1.3,4.1.2.8c0,0,.1.3.2.4.8,0,1.5,0,2.2-.2.1,0,.5,0,1.2-.2.2.4.3.7.4,1,0,0,.1.4.2.7-.2,0-.3,0-.4,0-.4,0-.6.2-.7.2h-.5c-.2,0-1,.2-2.5.4l-3.3.9c-.7.2-1.6.5-2.8,1-.8.3-1.3.5-1.6.6l-.4-1.5c.2-.2.6-.4,1.1-.7.7-.5,1.3-.8,1.6-1.2.1-.5,0-1.1-.2-1.8l-.7-2.4-1.3-4.7-.3-1.1c-.7-2.7-1-4.1-1.1-4.2l-.8-2.7-.3-1.1-.8-2.3-.3-.9c0,0-.2-.3-.3-.6-.6,0-1.5,0-2.6.2-.3,0-.5,0-.7,0l-.6-1.8,5.4-1.3v.3ZM203.8,108.5c.3,0,.8-.3,1.7-.6.9-.2,1.4-.4,1.5-.4l.9-.4,2.2-.9c1.4-.7,2.8-1.3,4.4-1.9,2.5-.9,4.7-.9,6.7,0s3.3,2.2,3.9,4c.5,1.3.5,2.7.1,4.1s-1.3,2.6-2.8,3.8c.2.2.6.5.9.8.8.6,1.5,1.1,2,1.6l4.8,4.1c1.2,1.1,2,1.7,2.3,1.9.3.2.9.2,1.7.3.6,0,1.1,0,1.5.2.2.2.3.4.3.6s0,.3.1.5l-.5.2-.4.2-1,.2-.7.3c-.4,0-.9.2-1.5.4l-1.8.6c-.1,0-.5.2-1.2.6-.3.2-.6.3-.7.4l-1.1-1.1c-.9-.8-1.5-1.4-1.9-1.8-1-1.1-2.7-2.8-5-5.2-1.1-1.1-1.8-1.7-2.1-1.8-.5,0-1.1,0-2,.3-.2,0-.7.2-1.2.5.1.4.2.9.4,1.4l1.7,4.4,1.2,3.8c.4.1.9.1,1.5,0,1-.1,1.9-.2,2.7-.1.2.7.4,1.2.5,1.5-.2,0-.4.1-.4.1l-.7.3c-2.7.7-4.3,1.1-4.8,1.3-.3.1-.5.2-.7.3l-2.4,1.1c-.7.4-1.4.7-2,.9l-.8.3c-.1-.3-.2-.5-.3-.6,0-.1-.1-.4-.2-.6.2-.3.7-.6,1.3-.9.6-.3,1.1-.7,1.5-1v-.6c0-.2-.3-.8-.7-1.9l-1.6-4.4-.8-2.4-.7-1.8-.4-1.1c-.5-1.5-1-2.8-1.4-4.1-1-2.8-1.7-4.5-2-5.3h-1.2c-1,.4-1.7.6-2,.7l-.5-1.2v-.2c.6-.3,1.1-.6,1.6-.8v-.6ZM175.6,121.4c1-.3,2.1-.7,3.3-1.3.4-.2,1.5-.7,3.2-1.6,2.5-1.3,4.9-2.5,7-3.5l3.1-1.5c.7-.3,1.8-.7,3.3-1.2.3.2.6.5.8.9l1.9,3.9.4.8s0,.2.1.4l-.7.4-.6.2c-.2-.2-.5-.5-1-.9l-1.3-1c-.5-.4-1.2-.9-2-1.2-.3,0-.7.2-1.2.4-.1,0-.5.2-1.1.4-1.1.4-2.3.9-3.6,1.5-1.4.7-2.7,1.3-3.8,1.9.1.3.7,1.6,1.7,3.8l1.5,3.2,1.1,2.4c.3,0,.6-.2.8-.3,2.1-1,3.6-1.7,4.4-2.3.8-.5,1.3-.9,1.5-1.2.1-.3.2-.6.2-1.1s-.3-1.4-.7-3.1h.2c0,0,1-.6,1-.6.6,1.1,1,2,1.3,2.6.6,1.3,1,2.2,1.2,2.6s.3.7.4.9c.2.3.4.9.8,1.6.4.7.7,1.3.9,1.7l.2.4-1.2.6c-.1-.2-.4-.6-.9-1.1-.8-1.1-1.4-1.7-1.7-1.9-.2-.2-.6-.2-.9-.2s-1.2.4-2.7,1.1c-1.8.8-3.1,1.5-3.9,2,.2.3.3.5.3.7.7,1.5,1.3,2.8,1.9,3.8l1.9,4.2c.2.5.5.7.9.8.6,0,2.1-.5,4.6-1.7,1.6-.8,2.9-1.6,3.9-2.4.7-.6,1.2-1.3,1.5-2.3.4-1.2.5-2.7.3-4.5.3-.2.6-.4.9-.5.1,0,.3-.1.6-.3.1.3.2.6.3.8l.2.6,1.1,3.9.7,2.3c-.7.4-1.3.7-1.8.9-.7.3-2.4,1.1-5.3,2.3-2,.9-4.5,1.9-7.3,3.3-1.4.7-3.1,1.5-5.1,2.6l-.7.3-2.1,1.1-.6-1.3c.2-.2.6-.5,1.2-.8,1.1-.7,1.9-1.3,2.2-1.8,0-.4-.2-.9-.5-1.5-.1-.2-.3-.6-.5-1.1l-.3-.6-3.5-7.2-1-2.2-1.5-3-1-2.2-1.3-2.3s-.1-.2-.2-.4h-.7c-.1,0-.3,0-.6,0-.7.2-1.4.4-2,.6-.2,0-.5.2-.8.3l-.6-1.6c.7-.3,1.3-.5,1.8-.6h.1ZM155.1,133.6l1.7-1.1.6-.4c.7-.4,1.7-1.1,3.1-2.1.8-.6,1.3-.9,1.5-1,1.4-.9,2.5-1.4,3.3-1.7,1.2-.4,2.3-.6,3.3-.4,1,0,2,.6,3,1.2,1.1.7,1.9,1.5,2.4,2.3,1.3,2.1,1.8,4.2,1.4,6.2-.4,2-1.5,3.6-3.3,4.8-.6.4-1.3.7-2,.9s-1.4.3-2.1.3c-.3-.3-.6-.8-1-1.4.3-.1.5-.3.7-.4.2-.1.4-.2.6-.3.9-.6,1.5-1.3,1.8-2.3.4-1.3,0-2.7-1-4.4-.7-1.2-1.5-2-2.4-2.6-.8-.5-1.6-.8-2.3-.7-.9,0-1.8.4-2.7.9-.8.5-1.3,1-1.5,1.5v.6l5.4,8.4.4.7.5.7c.1.2.3.4.5.7l.9,1.5,1.5,2.4,1.7,2.8c.2.4.6.9,1.1,1.5l3.5-1.6c.2.3.4.5.5.6.1.2.2.4.4.8-.2.2-.4.4-.6.5-.3.2-1,.6-2,1.1s-2.1,1.1-3.3,1.9c-1.4.8-2.6,1.7-3.7,2.7-.2.2-.5.4-.9.7-.3-.3-.4-.6-.5-.7,0-.1-.2-.3-.3-.5l.8-1c.5-.7,1-1.3,1.3-1.9-.1-.4-.3-.8-.4-1,0-.1-.2-.3-.3-.4-.2-.4-.6-.9-1-1.6l-3.2-5-3.7-5.6c-1.8-2.7-2.7-4.1-2.9-4.3-.3-.3-.6-.5-.9-.6-.3,0-.7,0-1.2.2-1,.4-1.7.6-2.1.7l-.9-1.4,4.1-2.2h.2ZM125.8,157c.5-.4,1-.9,1.6-1.3,1.4-1,2.1-1.7,2.4-1.9.8-.7,1.5-1.4,2.2-2,.7-.7,1.4-1.3,1.9-1.8.6-.5,1-.9,1.2-1.1v.2c.1,0,1,.9,1,.9h.1c-.5.7-1,1.2-1.6,1.7-.5.5-.8.9-.8,1.3s.5.9,1.5,2.1c.3.3.5.6.7.8l.5.6,1.3,1.5,1.2,1.2,2.3,2.8,3.7,3.9c1.1,1.1,2.1,1.9,3.2,2.3.8.3,1.6.4,2.5.2,1.2-.3,2.2-.7,3-1.4.9-.8,1.7-1.7,2.3-2.7.3-.6.6-1.2.7-1.9.1-.7.2-1.3,0-1.7-.2-.9-.4-1.7-.7-2.3-.4-.9-1.3-2-2.6-3.5-2.2-2.6-4.9-5.4-8-8.4l-.8-.8c-.6-.6-1-.9-1.4-1-.6,0-1.1,0-1.5.4l-1.3,1.2h-.2c0,.1-1-1.1-1-1.1l1.2-1,2.9-2.3c.9-.8,1.8-1.6,2.5-2.5l.3-.2c.4.3.6.5.7.7.1.1.2.3.3.5-.3.4-.6.8-1,1.2-.6.7-.9,1.1-.9,1.2,0,.2,0,.5.3.8s.4.5.8.8c.3.2.7.7,1.3,1.4.3.4.6.7.8.9l.6.6c.7.7,1.4,1.5,2.1,2.3l3,3.1c1.9,2.2,3.1,3.7,3.6,4.6.5.9.8,1.6,1,2.2.2,1,.2,2,0,3.1s-.7,2.3-1.4,3.4c-.7,1.2-1.7,2.3-3.1,3.5-1.5,1.3-3,2.2-4.5,2.7s-2.8.6-4,.4c-1.2-.2-2.4-.9-3.6-1.8-.8-.7-1.9-1.7-3.2-3.2l-6.6-7.6c-1.6-1.8-2.5-2.8-2.9-2.9-.5-.1-1.3.2-2.5,1.2-.2.2-.5.4-.7.5l-1.1-1.2.5-.5h.2ZM115.8,168.4c.4-.5,1-1.1,2-2,.6-.5,1.4-1.1,2.5-1.8.5.2,1.1.5,1.9,1,1.3.8,2.2,1.4,2.8,1.9.2.2.4.3.6.6v.2l-1,1-.2.2c-1.8-.7-3.2-1-4-.9-1.5,0-2.6.7-3.5,1.7-.8,1-1.1,2-1,3.1,0,1,.6,1.9,1.5,2.5.7.5,1.6.8,2.7.7,1.1,0,2.7-.8,4.7-2.2.7-.5,1.6-1,2.7-1.5,1.1-.5,2.1-.8,3-.9,1.2,0,2.2,0,3,.3s1.7.8,2.7,1.5c1.1.8,2,1.8,2.7,2.9.4.6.7,1.3.8,2.1.1.6.1,1.3,0,2.3,0,1-.2,1.9-.5,2.8-.3.8-.9,1.8-1.7,2.9-.5.7-1.3,1.5-2.3,2.3l-2,1.4c-.5.4-.9.6-1.2.6,0,0-.2,0-.4-.1h-.2c-.1-.2-.9-.8-2.4-1.8-.7-.5-1.3-.9-1.6-1.2l-.6-.5,1.1-1.5c1.6.5,2.6.7,3,.8.8.1,1.6.1,2.2,0,.6-.1,1.3-.4,1.9-.7.6-.4,1.2-.9,1.6-1.5.4-.6.8-1.3,1-2.1.2-.9.2-1.7,0-2.6-.3-.9-.8-1.5-1.4-2.1-.8-.6-1.9-.9-3.1-.7-.8,0-2.2.8-4.4,2.1s-3.8,2.1-4.9,2.4c-1.1.3-2.3.3-3.6,0-1.3-.3-2.4-.8-3.3-1.5-1.8-1.4-2.9-3.1-3.2-5.2-.4-2.1.3-4.3,2.1-6.6h0ZM113.5,223.1c-3.8,0-6.9-3.1-6.9-6.9s3.1-6.9,6.9-6.9,6.9,3.1,6.9,6.9-3.1,6.9-6.9,6.9ZM140.9,294.9c.1-.3.3-.7.6-1.2.6-1.1.9-1.9.7-2.3-.2-.8-1.7-2.4-4.4-5-.4-.4-.9-.8-1.5-1.2-.5.4-1.1.9-1.7,1.6l-4.8,5.2c-.9,1-1.4,1.6-1.4,2s.3.8.8,1.6l.3.3c.4.5.8,1,1,1.4l.3.5c-.2.3-.4.6-.6.8-.2.2-.4.4-.7.6l-.3-.3-.5-.5-2.1-2.3c-.2-.3-1.4-1.4-3.6-3.4-.6-.6-1.2-1.1-1.8-1.5-.9-.7-1.4-1.1-1.5-1.2-.7-.7-1.2-1.1-1.4-1.4l1.2-1.2c.3.2.8.5,1.4.9.7.4,1.3.8,2,1.2h.5c.5-.3,1-.7,1.5-1.2h0c0-.1,3.7-4.1,3.7-4.1l1.6-1.6,2.3-2.5,2.8-2.9,5.3-5.9c0-.3-.4-1-1.1-2-.2-.2-.4-.6-.7-1.2l-.3-.5,1.1-1.2,2,2.1c1.1,1.4,3,3.2,5.4,5.6,1.2,1.2,2.6,2.4,4,3.6l.3.3.8.8.3.3.7.6,2.9,2.6c.1.1.3.3.5.4.2.2.4.3.6.5-.3.4-.5.8-.9,1.2l-2.8,3.5c-.3.3-.6.6-.8.7-.4-.3-.7-.5-.9-.7s-.3-.4-.4-.6c0-.1.1-.5.4-1.1.7-1.6.9-2.6.8-3.1-.1-.5-.9-1.4-2.3-2.8l-2.3-2c-.9-.9-1.7-1.5-2.4-1.9-.1,0-.4-.2-.7-.3-.4.1-.8.4-1.2.8l-1.9,2.1-2.3,2.3c-1.1,1.2-1.8,2-2,2.3,0,.2,0,.3.1.3l1.1,1.1,1.9,1.8c.4.4,1.1,1,2.1,1.7.7.5,1.1.8,1.4.8s.8,0,1.2-.2,1.1-.8,2.2-1.8c0,0,.2.2.4.4.2.1.3.2.3.3.1.1.3.4.7.7l-2.7,2.7-1.5,1.5-.3.4c0,.1-.9,1-2.4,2.6,0,.1-.3.3-.5.5-.2-.1-.4-.3-.5-.4,0,0-.3-.3-.5-.7l.5-.4ZM154.9,307.9l-2.7,3.9-.6.7c0,.1-.1.3-.2.5.6.7,1.2,1.3,1.7,1.8,0,0,.4.4,1,.9-.2.4-.4.8-.6,1s-.3.4-.5.6c-.2-.1-.3-.2-.4-.2-.4-.2-.6-.4-.7-.4,0,0-.2-.2-.4-.4-.1-.1-.9-.8-2.2-2l-3.2-2.3c-.6-.4-1.6-1-2.9-1.8-.8-.5-1.4-.8-1.6-1l1-1.4c.3,0,.8.3,1.4.5.9.3,1.6.5,2.2.6.5-.2,1-.7,1.5-1.4l1.6-2.3,3.2-4.4.7-1.1c1.9-2.5,2.9-3.8,2.9-3.8l1.8-2.6.8-1,1.5-2.3.6-.9c0-.1.2-.4.3-.7-.3-.6-1-1.3-2.1-2.2-.3-.2-.5-.4-.6-.5l1.2-1.7,5,3.9c.6.5,1,.8,1.2.9.7.5,1.9,1.3,3.5,2.3.9.6,1.5.9,1.7,1.1-.2.3-.3.5-.4.6-.2.2-.4.5-.6.8-.6-.2-1.3-.4-2-.6-.7-.3-1.4-.5-1.9-.6-.3.3-.7.7-1.1,1.4-.4.6-.7,1-.9,1.4-1.6,2.2-2.8,3.8-3.6,5l-3.6,5.1-1.9,2.5h0ZM189.5,329.7l-1.4,2.6-.5,1.1-.7,1.1c-.2.6-.4,1-.5,1.1l-.6,1.1-2.3-1.1-1-3.8-2.1-7.5-1.4-5.3-1-4c-.7-2.5-1.4-4.7-2-6.7l-1.6-4.8-3.9,7.9c-.2.5-.5,1-.8,1.5l-.8,1.5-1.3,2.8c-.6,1.2-1.1,2.4-1.8,3.8s-.3.6-.3.8,0,.4-.1.8c.4.5,1.4,1.2,3.1,2.2.1,0,.2.2.4.4l-.8,1.7-.8-.4c-.4-.2-1.7-1-3.8-2.4-2.1-1.1-3.5-1.7-4.2-2s-1.1-.5-1.2-.5c-.2,0-.4-.2-.6-.4.1-.3.3-.6.4-.9,0-.2.2-.4.4-.7.4.1.7.2,1,.4,0,0,.3.2.7.4,1.1.6,1.8.8,2.1.8s.7-.5,1.1-1.2c1.3-2.2,2-3.5,2.3-4l.6-1.2,3.6-6.8,2.2-4.3c.8-1.6,1.3-2.8,1.5-3.5v-1.1c-.2-.7-.5-1.4-.9-1.9-.3-.3-1-1-2.3-2l.7-1.5,1.7.9.6.3c.8.4,1.4.6,1.7.8.2,0,.6.3,1.3.8.2.1.3.2.4.2s.5.3,1.3.6c.7.3,1.1.5,1.2.6.1,0,.3.2.6.3,1,3,1.7,5.6,2.2,7.6.5,2.1,2.5,9.4,6,22.1l.3-.5,1.2-2.5c.7-1.4,1.3-2.6,1.6-3.5.4-.9.9-1.9,1.5-3,.6-1.2,1.1-2.2,1.5-3.2.8-1.9,1.3-3,1.4-3.3.5-.9.7-1.5.6-1.8-.1-.5-.6-1-1.5-1.7-.7-.5-1.1-.9-1.3-1.3l.7-1.2.5.2,3.9,1.9,4.4,2.1c.3.1.6.3.8.4l-.7,1.4c-.4,0-.8,0-1.1-.1-.9-.2-1.5-.3-1.7-.3-.9,0-1.4.1-1.5.2-.2.1-.4.3-.6.7,0,0-.2.4-.4.9-.1.3-.4.8-.9,1.8-1.1,2-1.8,3.7-2.4,4.9s-.4.8-.6,1.3l-3.7,7.5c-.3.5-.4.9-.6,1.1l.2-.2ZM229.7,321.9l-1.7,4.6-.3.9s0,.2-.2.4l-.9-.3c-.1,0-.3-.1-.7-.3v-1.5l-.2-1.9c0-.8-.2-1.6-.6-2.5-.3-.2-.7-.5-1.3-.7-.1,0-.5-.3-1.2-.6-1.2-.6-2.6-1.2-4.1-1.7-1.7-.6-3.2-1.2-4.5-1.6-.2.4-.7,1.8-1.7,4.3l-1.4,3.7-1,2.8c.3.2.6.3.9.4,2.5.9,4.2,1.5,5.3,1.8s1.8.4,2.1.3c.3,0,.7-.3,1-.7.2-.3.9-1.3,1.9-3h.3l1.2.6c-.4,1.3-.8,2.3-1,3-.6,1.6-1,2.5-1.2,3-.2.4-.3.8-.4,1-.1.4-.4,1-.7,1.9s-.5,1.6-.7,2l-.2.5-1.5-.5c0-.3.1-.8.2-1.6.2-1.5.3-2.4.2-2.9,0-.3-.3-.6-.6-.9-.2-.2-1.2-.6-3-1.3-2.1-.8-3.7-1.3-4.8-1.6-.1.4-.2.6-.3.8-.7,1.8-1.2,3.2-1.6,4.4l-1.8,4.8c-.2.6-.2,1,.1,1.4.4.5,2.1,1.3,5,2.4,1.9.7,3.6,1.2,5,1.4,1,.1,2,0,3-.6,1.3-.6,2.6-1.7,3.9-3.3.4.1.8.2,1.1.3.2,0,.4.2.7.3-.2.4-.3.7-.5.9l-.4.6-2.3,3.9-1.3,2.4c-.9-.3-1.6-.5-2.2-.7-.8-.3-2.8-1.1-6.1-2.5-2.3-1-5.1-2.1-8.4-3.4-1.7-.6-3.7-1.3-6.2-2.1l-.9-.3-2.5-.9.6-1.5c.3,0,.8.1,1.7.3,1.5.4,2.6.5,3.2.4.3-.4.6-.9.8-1.5,0-.3.2-.7.5-1.3l.3-.7,3.1-8.4,1-2.5,1.2-3.6,1-2.5.8-2.8s0-.2.1-.5c0-.2-.2-.4-.5-.5-.1,0-.3-.2-.6-.4-.7-.5-1.4-.9-2.2-1.2-.3-.1-.5-.3-.9-.4l.8-1.7c.8.3,1.4.7,2,1,1,.6,2.3,1.1,3.7,1.7.5.2,1.8.6,3.9,1.3,3.1,1,5.9,2,8.4,2.9l3.8,1.4c.8.3,2,.9,3.6,1.7.1.4.1.8,0,1.3h.2ZM274.6,335.2v.4l-.2.6v.3c-.2.3-.3.6-.3.7v.6c-.3.7-.3,1.1-.4,1.2l-.7,2.9-.5,2.2-.7,2.9c-.2.7-.5,2.1-.9,4.2l-.8,3.3-.6,2.7c-.1.5-.3,1.1-.5,1.8.3.2.5.3.8.4,1.3.6,2.2,1.2,2.8,1.7l-.3,1.6c-.6-.1-.9-.2-1-.2-.7-.2-1.5-.4-2.3-.7-1.1-.4-3-.9-5.6-1.5-1.2-.3-2.7-.5-4.6-.8-.2,0-.4-.2-.7-.3.2-.7.3-1.2.5-1.5h4.3c.4-1.2,1-3.3,1.7-6.1l.5-2c.1-.8.3-1.8.6-3-.5-.2-1.1-.3-1.7-.5l-9.9-2.4h-.3c0-.1-.2-.1-.3-.1-.4,0-.7-.1-1-.2h-.6c-.3-.2-.6-.2-1-.2l-.5,1.7v.3c-.1.4-.2.7-.2.8l-1.7,7.2c0,.4-.2.8-.2,1.2l.2.2,3,1.3c.1,0,.3.2.3.2.2,0,.3.2.4.3,0,.4,0,.6-.1.7,0,.2-.1.5-.3.8-.5-.1-1-.2-1.3-.3-.3,0-.6-.1-.9-.2-.1,0-.2,0-.4-.1l-3-.8c-.7-.2-1.7-.5-3-.8h-.5c-.6-.2-1-.3-1.1-.3-.9,0-2.3-.3-4.2-.8.1-.5.3-1,.5-1.6h2.8c.4.1.8,0,1.3,0l1.6-5.7c.4-2.1.8-3.7,1-4.7l.2-.5c.2-.6.6-2.2,1.2-4.7v-.7l.6-1.9.4-2,.2-1c.2-.9.4-2,.6-3.2v-.6c-.1,0-.2-.1-.4-.2-.1,0-.3-.1-.4-.2-.5-.2-1.1-.5-1.7-.7l-.3-.2c-.4-.1-.7-.3-.8-.4,0-.5.1-.7.1-.9s.1-.4.3-.7c.3,0,.7,0,1.2.2.5.1.9.2,1.1.2,1.7.6,3,1,3.8,1.2.4,0,.8.2,1.2.3.4.1.7.2,1,.3.5.1,1.6.3,3.5.6.3,0,.7,0,1,.1.5.1,1,.3,1.3.4,0,.3-.1.6-.1.7,0,.2-.2.5-.3.9l-3.9-.2c-.3,0-.5.3-.6.6l-.2.9v.4l-.3,1-.2.8v.2c0,.2,0,.3-.1.4l-.7,2.9c0,.3,0,.5-.1.6,0,0,0,.3-.2.7,0,.2-.1.5-.2.8,0,.2-.2.8-.3,1.6.4.2.7.3,1,.4l3.2.8,1.5.4,3.9.9,3.8.8c.5.1,1,.2,1.6.2.2-.5.5-1.8,1-3.8l.3-1,.8-4,.2-1.6c0-.1,0-.2-.2-.4-.4-.4-1.3-1-2.8-1.7-.3-.1-.5-.3-.7-.4.2-.5.3-1,.5-1.3.3,0,.5,0,.6.1l2.1.5c1.3.5,2.6.9,4,1.2.3,0,.6.1.8.2l2.8.6c.3,0,.5,0,.8.1.5,0,1.1,0,1.6.2.4,0,.9.2,1.5.4-.2.6-.3,1.1-.5,1.6h-2.7c-.4,0-.9.1-1.4.3l-.2.4h-.4ZM306,367.4v.5c-1.1-.2-2.3-.4-3.5-.7-1.3-.3-2.4-.5-3.5-.7s-2-.3-2.5-.3l-3.7-.3h-1.1c0-.7.2-1.2.3-1.7l2.5-.2c.8,0,1.2-.2,1.3-.3.2-.1.3-.3.3-.5v-.6l-.5-2.4-1-4.8-8.3-1.3c-.4.7-1.3,2.4-2.7,5.2-.4.8-.6,1.3-.7,1.6,0,.4,0,.7.2.9.3.3.9.7,1.8.9.1,0,.6.2,1.5.5,0,.6-.1,1-.2,1.2,0,.2,0,.3-.1.5-.9-.1-3-.6-6.4-1.4h-.9c-1.1,0-2.1,0-3.1-.1h-.4l.3-1.6c.3,0,.8,0,1.5-.1,1.2,0,1.9-.2,2.1-.3.3-.2.6-.6,1.1-1.2l6.3-11.7,7.3-13.8c.5,0,.9.1,1.4.2h1c0,.1.1.6.1.6l2.3,10.2c.5,2.2,1,4.3,1.4,6.3s.7,3.7,1.1,5c.2.8.4,1.9.7,3.5.1.8.4,1.9.7,3.2.2.7.4,1.1.5,1.2.2.3.6.5,1.2.7s1.2.4,1.8.8v1.2-.2ZM345.3,341.8c-.4.2-.7.3-1.1.3-1,.2-1.5.3-1.7.4-.8.4-1.2.6-1.3.7-.1.2-.2.5-.3.9v1c0,.3,0,.9-.1,2-.2,2.3-.2,4.1-.2,5.4v1.4l-.4,8.3v1.2l-.2,2.9v1.2l-.2,1.3v2.5h-2.6l-2.4-3.1-4.9-6.1-3.4-4.3-2.5-3.2c-1.6-2-3.1-3.8-4.5-5.4l-3.3-3.7-.5,8.8c0,.5,0,1.1-.1,1.7v1.7c-.1,0-.2,3.1-.2,3.1v5.1c0,.2.1.4.2.7.6.3,1.8.5,3.7.8.1,0,.3.1.6.2v1.9h-.9c-.5,0-1.9-.3-4.4-.7-2.3-.1-3.9-.2-4.7-.2h-1.3c-.2,0-.4,0-.7-.1v-1.7h1s.4,0,.9.1c1.2,0,2,0,2.2-.1.2-.2.4-.7.5-1.6.3-2.5.5-4,.5-4.6v-1.3l.7-7.7.3-4.8c.1-1.8.1-3.1,0-3.8,0-.4-.2-.7-.4-1-.5-.6-1-1.1-1.6-1.4-.4-.2-1.3-.5-2.9-.9v-1.7h1.9c0,.1.6.1.6.1h1.8c.2,0,.7,0,1.5.2h3.9c2.1,2.4,3.8,4.4,5.1,6.1,1.3,1.7,6.1,7.7,14.3,17.9v-.6l.2-2.7c0-1.6.1-2.9.1-3.8s0-2.1.1-3.4c0-1.3.1-2.5.1-3.5v-3.6c0-1,0-1.7-.2-1.9-.3-.4-1-.7-2.1-.9-.8-.2-1.4-.4-1.8-.7v-1.4h.7l4.3.2,4.8.2h.9v1.5h0ZM377.2,364.1c-1.3,2.3-3.2,4.1-5.6,5.4-1.7,1-4,1.4-7,1.4l-4.5-.2h-13.1v-1.9c.2,0,.7-.2,1.4-.3,1.4-.2,2.3-.6,2.7-1,.3-.3.4-.8.5-1.5,0-.2,0-2.6.2-7.2v-14.8c0-.4,0-.7-.3-.9-.1-.1-.4-.2-.9-.2s-.8,0-1.3.1c-.6,0-1.2,0-1.7.2h-.4v-2.1c.9-.3,2.1-.6,3.7-.8,2.7-.5,6-.7,9.9-.6,3.3,0,5.6.2,7.2.7,2.3.6,4.1,1.6,5.6,2.8,1.9,1.6,3.3,3.5,4.3,5.7.9,2.1,1.4,4.5,1.4,7s-.7,5.9-2,8.2h-.1ZM421.8,365.7c0,1.1,0,1.8-.1,2.1-.3,0-.5.1-.6.2h-.8l-1.1.2h-2.6c-.3,0-1.7,0-4.2.2-2.5.1-5,.3-7.4.5l-4.5.5c-1.7.2-3.3.4-4.8.7h-.7v-1.9c.4-.2,1.1-.4,1.9-.6s1.3-.3,1.4-.3c.6,0,.9-.2,1.1-.4v-1l-.3-3v-3.1c-.1,0-.3-2-.3-2l-.2-2.3-.3-2.5-.4-5.3-.2-2.4v-.3c-.3-1.6-.5-2.5-.6-2.7s-.5-.3-1.3-.5c0,0-.4-.1-.9-.3-.4-.1-.7-.2-1-.2-.5,0-.9-.2-1.1-.4,0-.4-.1-.7-.1-.9v-.6c.1,0,.3-.1.4-.2.4,0,1.6,0,3.8-.1l3.1-.3,2.3-.2c1,0,2.3-.3,3.9-.5.5,0,.7-.1.8-.1.2,0,.4,0,.5.1.1.2.2.5.3.9,0,.4,0,.6-.2.8,0,.1-.4.2-.9.4l-2.7.9s-.2.1-.4.2c0,.1,0,.2-.1.3v2.2c.1,0,.1.4.1.4v2.2c0,.3,0,.7.2,1.3.1.9.2,1.8.3,2.5,0,.8.1,1.8.2,2.8,0,.4,0,.9.1,1.5l.9,11.2c0,.5.1.8.3.9h2.1l1.3-.2h1.4c2.4-.3,4.2-.8,5.5-1.5,1-.5,1.6-1,1.9-1.5.5-.5.8-1.1,1.1-1.6.3-.6.5-1.5.8-2.8h1.9v.7c.2,1.1.2,3.1.2,6h0ZM450.4,363.5c-1.3,0-2.5.2-3.5.4-1.1.2-2,.3-2.5.4l-3.7.8-1.1.2c0-.5-.1-1.1-.2-1.6l2.3-.9c.7-.3,1.1-.5,1.2-.7s.2-.4.1-.6c0-.2,0-.4-.2-.6l-1.2-2.2-2.4-4.3-8.3,1.2c-.2.8-.6,2.7-1.1,5.8-.1.9-.2,1.5-.2,1.8s.2.7.4.8c.4.2,1,.4,2,.3h1.6c0,.6.2.9.2,1.2v.5c-.9.1-3.1.3-6.5.6l-.9.3c-1,.4-2.1.6-3,.7h-.4l-.2-1.5c.3-.1.7-.3,1.4-.6,1.1-.4,1.7-.7,1.9-.9s.4-.7.7-1.5l2.5-13.1,2.9-15.3c.5,0,.9-.1,1.4-.2h1c0-.1.3.2.3.2l5.3,9.1c1.2,1.9,2.2,3.8,3.2,5.6,1,1.8,1.8,3.3,2.5,4.5.4.7,1,1.7,1.7,3.1.4.8.9,1.7,1.7,2.8.4.6.7,1,.8,1,.3.2.7.3,1.3.3s1.3,0,2,.2c.2.5.2.9.3,1.1v.5c-1.1.2-2.3.3-3.6.4l.3.2ZM480.1,352.7c-.3,1-.9,2.1-1.7,3.1-.8,1-1.9,1.9-3.2,2.7-1.4.8-3,1.4-5,1.8-2.2.5-4.2.6-5.9.3-1.7-.3-3.1-.8-4.2-1.7-1-.9-1.9-2.1-2.6-3.7-.5-1.1-1-2.7-1.4-4.8l-2.5-11c-.6-2.6-1-4-1.3-4.3s-1.5-.5-3.1-.1c-.4,0-.7.1-.9.1l-.5-1.8c.3,0,.5-.1.8-.2.7-.2,1.5-.3,2.3-.4,1.9-.3,3-.5,3.4-.6,1.1-.3,2.3-.5,3.4-.8s2.1-.6,2.9-.8c.8-.2,1.4-.4,1.7-.4v.3l.4,1.3v.2c-.7.3-1.5.6-2.4.8-.8.2-1.3.5-1.5.9-.1.3,0,1.2.4,2.8.1.5.2.9.3,1.2l.2.8.5,2.2.6,1.8.8,4,1.6,5.7c.5,1.7,1.1,3,2,3.9.6.7,1.4,1.2,2.4,1.5,1.4.4,2.6.4,3.8.2,1.4-.3,2.6-.8,3.7-1.5.7-.4,1.2-.9,1.7-1.5s.8-1.2,1-1.6c.3-1,.5-1.8.5-2.6s-.2-2.7-.7-4.8c-.8-3.7-2-7.9-3.4-12.5l-.4-1.2c-.2-.9-.5-1.5-.9-1.7-.6-.4-1.1-.5-1.7-.4l-2,.5h-.3l-.4-1.8,1.7-.4,4.2-.7c1.4-.3,2.7-.7,3.9-1.1h.4c.2.5.3.8.4,1v.6c-.5.3-1,.5-1.6.7-.9.4-1.4.6-1.5.7-.2.2-.2.5-.1.9,0,.3.2.7.3,1.2.1.4.3,1,.5,2s.2,1,.3,1.3c0,.3.2.6.2.9.3,1.1.6,2.2.9,3.4l1.3,4.6c.7,3.1,1.1,5.3,1.1,6.4s0,2-.2,2.7h-.2ZM518.6,346.2l-3.4-1.9-6.9-3.7-4.8-2.6-3.6-2c-2.3-1.2-4.4-2.3-6.2-3.2l-4.5-2.2,3,8.3c.2.5.4,1,.5,1.6l.5,1.6,1.1,2.9c.5,1.2,1,2.5,1.6,3.9.2.4.3.6.4.8s.3.3.5.6c.6,0,1.9-.2,3.7-.7h.6l.7,1.8-.8.3c-.4.1-1.9.5-4.3,1.1-2.2.8-3.7,1.3-4.4,1.6-.7.3-1.1.5-1.2.5-.2,0-.4.1-.7.1-.1-.3-.3-.6-.3-.9s-.1-.4-.2-.8c.4-.2.7-.3.9-.4l.8-.2c1.2-.4,1.8-.7,2-1s.1-.8-.1-1.6c-.7-2.4-1.1-3.9-1.3-4.4l-.4-1.2-2.4-7.3-1.6-4.5c-.6-1.7-1.1-2.9-1.5-3.5-.2-.3-.5-.6-.8-.7-.7-.4-1.3-.6-2-.7-.4,0-1.4,0-3,.3l-.6-1.5,1.8-.6.6-.2c.8-.3,1.4-.5,1.7-.6.2,0,.7-.2,1.5-.4.2,0,.3,0,.5-.1.1,0,.6-.2,1.3-.5.7-.3,1.2-.4,1.3-.5.2,0,.4-.1.7-.2,2.8,1.4,5.2,2.6,7,3.7,1.9,1.1,8.6,4.7,20.1,11l-.2-.6-1-2.6c-.5-1.5-1-2.7-1.4-3.6s-.8-1.9-1.2-3.2c-.4-1.2-.8-2.3-1.3-3.3-.8-1.9-1.3-3-1.4-3.3-.3-1-.6-1.5-.9-1.7-.4-.2-1.2-.3-2.3,0-.8.1-1.4.1-1.9,0l-.4-1.3.5-.2,4.1-1.5,4.6-1.7c.3-.1.6-.2.9-.3l.5,1.5c-.3.3-.5.5-.8.7-.8.5-1.3.8-1.4,1-.6.7-.9,1.1-.9,1.2v.9s.1.4.4.9c0,.3.3.9.6,1.9.7,2.2,1.4,3.9,1.9,5.1.2.4.3.8.5,1.4l2.9,7.8c.2.6.3.9.4,1.2l.9,2.8.5,1.1.3,1.2c.3.6.4,1,.4,1.1l.4,1.2-2.4.9v-.6ZM552.8,322.6c-.2,2.6-1.1,5.1-2.7,7.3-1.1,1.6-3,3-5.7,4.3l-4.2,1.8-1.2.5-1.6.8-.5.2-1.7.8-2.2,1s-.7.4-2,1.1l-1.6.8c-.4.2-.7.4-.9.5-.2-.3-.5-.9-.9-1.7.2-.2.5-.4,1.1-.8,1.1-.8,1.8-1.5,2-2.1,0-.4,0-.9-.2-1.6,0-.2-1-2.4-2.9-6.6l-1.1-2.3-1.3-2.9-3.5-7.3-.4-.9c-.2-.4-.4-.6-.7-.7,0,0-.4,0-.8.2-.3.2-.7.4-1.1.7-.6.3-1.1.6-1.5.9,0,0-.2.1-.3.2l-.9-1.9c.7-.6,1.7-1.4,3-2.4,2.2-1.6,5.1-3.2,8.6-4.9,3-1.4,5.2-2.2,6.7-2.5,2.3-.4,4.4-.4,6.2,0,2.4.6,4.5,1.7,6.3,3.3,1.8,1.5,3.2,3.4,4.3,5.7,1.4,2.9,1.9,5.6,1.7,8.2v.3ZM588.2,308.5l-.4.3-1,.5-.8.5c-.4.2-.9.5-1.5.9l-1.8,1.2c0,0-.5.4-1.2,1-.3.3-.5.5-.7.6l-1.5-.9c-1.2-.6-2-1.1-2.6-1.5-1.4-.9-3.7-2.3-6.8-4.3-1.5-.9-2.4-1.3-2.7-1.3-.5,0-1.3.2-2.2.8-.2.2-.7.5-1.2.9.2.4.5.9.8,1.4l3,4.3,2.4,3.8c.5,0,1-.1,1.7-.4,1.1-.4,2.1-.7,3-.9.4.6.7,1.1.9,1.5-.2.1-.4.2-.5.3l-.7.5c-2.8,1.5-4.4,2.4-4.9,2.7-.3.2-.5.4-.7.5l-2.4,1.9c-.7.6-1.4,1.1-2,1.5l-.8.5c-.2-.3-.4-.5-.5-.6,0-.1-.2-.4-.4-.6.2-.4.6-.8,1.1-1.3.6-.5,1-1,1.4-1.5,0-.3-.2-.5-.3-.6,0-.2-.5-.8-1.2-1.9l-2.9-4.4-1.5-2.4-1.3-1.8-.7-1.1c-.9-1.5-1.8-2.8-2.6-4.1-1.8-2.7-3-4.5-3.6-5.2l-1.2.5c-1,.6-1.7,1-2.1,1.1l-.8-1.2v-.3c.5-.5,1-.9,1.5-1.3.3-.2.8-.6,1.7-1.2.9-.5,1.4-.8,1.5-.8l.9-.7,2.2-1.6c1.3-1.1,2.8-2.2,4.4-3.2,2.5-1.7,5-2.3,7.4-1.9s4.2,1.5,5.4,3.3c.9,1.3,1.3,2.8,1.2,4.4,0,1.6-.8,3.3-2.1,4.9.3.2.7.4,1.2.6,1,.5,1.9.8,2.6,1.2l6.3,3.2c1.6.9,2.6,1.3,3,1.4.4,0,1,0,1.9-.2.7-.1,1.3-.2,1.7-.2.2.2.4.3.5.5,0,.1.2.3.3.5l-.5.3h0ZM604.1,293.5l-1.8,1.5-1.3,1-1.7,1.8-1.3,1.3c-.2.1-.4.4-.7.8-.4.6-.8,1-1.1,1.3l-1.1,1c-.2-.2-.4-.4-.5-.5s-.3-.3-.5-.6l2.3-3.5c0-.2.2-.3.2-.5-.5-.5-.8-.9-.9-1-1.7-1.7-2.8-2.9-3.4-3.5-.6-.6-1-1-1.1-1.1l-.4-.4c-.7-.7-1.8-1.2-3.4-1.5-.7-.1-1.1-.2-1.3-.3l-8-2.1-3.9-1.1c0,0-.9-.2-2.3-.5-.4,0-.7,0-.9.2,0,0-.7.4-1.8,1-.2,0-.3-.1-.3-.2,0,0,0-.2-.2-.3,0-.1-.2-.3-.4-.5.2-.4.8-1,1.9-2h.2c.3-.3.5-.5.6-.6v-.2c.3-.1.8-.5,1.6-1.1,1.4-1.2,2.5-2.1,3.3-2.8.8-.8,1.6-1.7,2.3-2.6,0-.1.2-.2.2-.3h0c.2,0,.3,0,.4.2l.8.9c0,.3-.4.7-.6,1.1l-.6.8c-.2.3-.5.7-.9,1.2v.2l.2.3c1.1.5,3.1,1,5.8,1.6.8.3,1.6.5,2.4.7.2,0,1,.3,2.4.7.2,0,.3,0,.5.1.2,0,.5.1.7.2.5.1.7.2.9.2.6.2,1,.3,1.3.3l-.7-4.1c-.2-1.3-.5-3-1-5.3h0c0-.1-1.1-4-1.1-4,0-.5-.2-.9-.4-1,0,0-.2-.1-.3-.2-.3,0-.5,0-.6.2,0,0-.3.2-.7.6-.3.2-.5.3-.8.5-.2.2-.4.3-.6.4-.2-.1-.6-.5-1.3-1.2l3.4-2.9c0,0,.3-.2.5-.3l.8-.7.3-.3c.3-.4.7-.8,1.2-1.4,0-.2.3-.3.4-.5l1.2,1.3v.3c-.9,1-1.3,1.8-1.4,2.4,0,.8,0,2.4.8,4.7l1.1,5.3c.5,3,.9,5,1.2,6,0,.3.2.5.3.8l.5.5,1.4,1.5.4.4c.3.3.5.7.8,1l4.3,4.3h.4c.2,0,.6-.4,1.2-.8,1.1-.9,1.8-1.3,2-1.3s.3,0,.5.2c0,.1.2.2.4.4,0,.1.2.3.4.5l-1.9,1.7-.4-.2ZM621.2,216.2c0,3.8-3.1,6.9-6.9,6.9s-6.9-3.1-6.9-6.9,3.1-6.9,6.9-6.9,6.9,3.1,6.9,6.9ZM609.9,165.9c.2.2.4.5.7,1,1,1.2,1.8,2.5,2.3,3.8s.9,2.5,1,3.6c-.3.3-.8.9-1.7,1.8-.9.9-1.5,1.5-1.9,1.8-.2.1-.4.3-.7.4-.3-.4-.6-.8-.8-1.2.6-1.8,1-3,1.1-3.6,0-1.1,0-2.2-.3-3.5-.2-.9-.7-1.8-1.4-2.7-1.4-1.7-3.4-2.4-6.1-2.3-2.7,0-5.6,1.5-8.8,4.1-1.5,1.3-2.8,2.7-3.8,4.4s-1.5,3.3-1.5,5,.6,3.1,1.7,4.5c.5.6,1.2,1.3,2,1.8.4.3.8.4,1.3.5.3,0,.7,0,1-.3.7-.4,1.6-1.1,2.8-2.1,1.1-.9,1.9-1.6,2.3-2,0-.2.2-.4,0-.5,0-.1,0-.4-.3-.8l-.7-1.6c-.2-.4-.2-.6-.2-.8,0-.1.2-.2.3-.3.2-.1.4-.3.7-.4.2.1.4.2.4.3.9,1.1,1.6,2,2.2,2.9.2.3.5.6.7.9l2,2.3.9,1c0,.1.4.5.8,1-.3.2-.5.4-.7.6,0,0-.3.2-.5.2s-.6-.2-1.1-.5-.8-.4-.9-.4c-.2,0-.3,0-.5.2-.2.1-.9.6-2,1.6-1.3,1.1-2,1.7-2.3,1.9-.8.6-1.3,1-1.4,1.1-.4.3-.7.5-.9.5-.5,0-1.6-.6-3.2-1.7-1.6-1.1-3.2-2.6-4.8-4.6-1.1-1.3-2-2.6-2.5-3.8-.6-1.2-.9-2.3-1.1-3.4-.2-1.4,0-2.9.2-4.2.3-1.4.8-2.7,1.6-3.8,1.1-1.7,2.3-3.1,3.7-4.2,1.6-1.3,3.5-2.3,5.7-3,1.6-.5,3.2-.7,4.9-.6,1.7.1,3.4.6,5.1,1.5,1.7.9,3.2,2.1,4.5,3.7h.1Z"></path><path d="M291.9,343.1l-4.5,8.6c3.4.6,5.4.9,6,1h.5c-.2-1.4-.6-3.1-1-5.1s-.8-3.5-1.1-4.5h.1Z"></path><path d="M564.7,294.1c-.7-.6-1.3-1-1.9-1.1-.8-.2-1.6-.2-2.5,0-.7.2-1.6.6-2.8,1.4-.6.4-1,.7-1.4,1.1l.2.4,1.8,2.6,1,1.7,1.4,2.1c.4.6.9,1.4,1.5,2.4l.4.6c.6-.4,1-.6,1.3-.8,2.1-1.4,3.3-2.8,3.6-4.1.3-1.4,0-2.7-.8-4.1-.6-.8-1.2-1.5-1.9-2.1h.1Z"></path><path d="M367.4,343.6c-1.6-1-3.5-1.6-5.7-1.6s-2.8.2-3.9.6v19.8c-.1,2.2.3,3.6,1,4.4,1.1,1.1,2.6,1.7,4.5,1.7s2.5-.1,3.2-.4c1.4-.6,2.6-1.4,3.4-2.4.9-1,1.5-2.4,2-4.2.5-1.8.7-3.7.7-5.6,0-3.2-.4-5.8-1.4-7.8-.9-2-2.2-3.6-3.9-4.6h0Z"></path><path d="M433.3,343.5l-1.8,9.5c3.4-.5,5.4-.8,6-.8h.5c-.6-1.4-1.5-3-2.4-4.7-1-1.7-1.8-3.1-2.3-4h0Z"></path><path d="M563.3,107.3c-53.9-29.5-125.4-45.7-201.3-45.7s-147.4,16.2-201.3,45.7c-55.3,30.3-85.8,71-85.8,114.7s30.5,84.5,85.8,114.7c53.9,29.5,125.4,45.7,201.3,45.7s147.4-16.2,201.3-45.7c55.3-30.3,85.8-71,85.8-114.7s-30.5-84.5-85.8-114.7h0ZM560.4,331.5c-53,29-123.5,45-198.4,45s-145.4-16-198.4-45c-53.3-29.2-82.7-68-82.7-109.4s29.4-80.3,82.7-109.4c53-29,123.5-45,198.4-45s145.4,16,198.4,45c53.3,29.2,82.7,68,82.7,109.4s-29.4,80.3-82.7,109.4Z"></path><path d="M545.1,317.3c-1.4-2.9-2.9-5-4.6-6.5-1.7-1.4-3.5-2.2-5.5-2.5-1.9-.2-3.8.1-5.8,1-1.4.6-2.4,1.4-3.2,2.2.2.5.3.8.4,1l1.8,3.6,1.5,3.2c.5,1,.9,1.9,1.3,2.7l.9,2.1,1.7,3.4.9,2.1c.9,2,1.9,3.1,2.9,3.5,1.5.5,3,.4,4.8-.4,1.3-.6,2.2-1.2,2.7-1.8,1-1.2,1.7-2.4,2.1-3.6.3-1.3.3-2.8,0-4.6-.4-1.8-1-3.6-1.8-5.4h-.1Z"></path><path class="st1" d="M510.6,132.4s.2.1.2.2h0c0-.2.1-.3.2-.4,0-.2.2-.6.2-1h-.1c-.1.2-.2.4-.3.5,0,.2-.2.5-.3.8h0Z"></path><path class="st1" d="M308.6,250.4l1.9,1.1s.2-.5.4-1.2c-.7-.2-1.3-.5-1.8-.7-.2.4-.5.8-.5.8h0Z"></path><path class="st1" d="M313.5,252.7l1.3.2v-1.4c-.4-.1-.8-.3-1.1-.4,0,.9-.1,1.5-.1,1.5h0Z"></path><path class="st1" d="M314.1,254.4l-6.6-2.1s-.1.8-.4,1.8c1.1.4,2.4.8,3.8,1.3,1.7-.7,3.2-1,3.2-1Z"></path><path class="st1" d="M300.9,251.8s1.6.6,4.3,1.6c1.9-1.3,3.6-2.2,3.6-2.2l-4,.2s-.3-2-.2-3.6l-.6-.3-3,4.3h0Z"></path><path class="st1" d="M306.3,249.9s.3-.6.8-1.1c-.2,0-.5-.2-.7-.3,0,.7-.1,1.4-.1,1.4h0Z"></path><path class="st1" d="M399,232.6c-2.5-1.2-2.5-3.3-2.5-3.3l-1.3,7s.5.3,1.5.8c1,0,1.5-.1,1.5-.1,0,0,0-2.4.8-4.4Z"></path><path class="st1" d="M317.5,238.9c-3.6.2-2.1,1.5-.3,2.5.7-.2,1.1-.4,1.1-.4l1.1-1.3s-.1-.4-.2-.9h-1.7Z"></path><path class="st1" d="M331.8,235.6c0-.5-.1-1.1-.3-1.8-.8.8-.9,1.6.3,1.8Z"></path><path class="st1" d="M407.1,225.1c-.8,1.6-1.2,2.5-1.2,2.5l8.3,1.9s2-.1,3.1-.7c-.7-.4-1.2-.7-1.6-1-1.7-1-4.6-2-8.5-2.7h0Z"></path><path class="st1" d="M320.1,242.5h-.2.2v-.2.2Z"></path><path class="st1" d="M444.4,250.4s.6.7,1.2,1.6c.6,0,1-.1,1-.1,0,0,.6-.2,1-.8l-.4-.9-2.8.2h0Z"></path><path class="st1" d="M417.8,235.3s-.2-.1-.3-.1c-.8.2-1.4.3-1.4.3,0,0,.8-.2,1.7-.2h0Z"></path><path class="st1" d="M405.7,234.5c1.6.4,2.3,1.3,2.3,1.3,0,0,.1-.7-.8-1.4-1.5-.3-2.2-.5-2.2-.5,0,0,.3.2.7.6h0Z"></path></g></svg> 